<?xml version="1.0" standalone="no"?>
<!DOCTYPE svg PUBLIC "-//W3C//DTD SVG 20010904//EN"
 "http://www.w3.org/TR/2001/REC-SVG-20010904/DTD/svg10.dtd">
<svg version="1.0" xmlns="http://www.w3.org/2000/svg"
 width="1760.000000pt" height="1760.000000pt" viewBox="0 0 1760.000000 1760.000000"
 preserveAspectRatio="xMidYMid meet">
<metadata>
Created by potrace 1.11, written by Peter Selinger 2001-2013
</metadata>
<g transform="translate(0.000000,1760.000000) scale(0.100000,-0.100000)"
fill="#000000" stroke="none">
<path d="M4929 12633 c0 -5 -2 -1200 -2 -2656 l-2 -2648 65 5 c106 9 173 16
200 22 14 3 54 7 90 9 36 2 79 6 95 9 17 2 64 8 105 11 77 7 124 11 208 20 26
3 76 7 112 10 36 3 88 8 115 10 28 3 84 7 125 10 41 3 93 7 115 9 79 7 231 19
270 22 22 1 43 2 47 3 6 1 9 146 9 396 0 11 0 85 0 165 0 80 0 152 0 160 0 8
0 80 0 160 0 80 0 152 0 160 0 8 0 47 0 85 0 39 1 75 0 80 0 6 0 60 0 120 0
61 0 119 0 130 -1 130 0 158 5 166 3 5 1 9 -5 9 -6 0 -6 11 -1 29 4 16 6 31 4
34 -3 2 -5 44 -4 93 0 49 0 121 0 159 0 39 -2 82 -4 98 -2 15 0 27 3 27 3 0 5
21 3 47 -5 88 -3 275 2 280 3 3 9 -3 13 -13 3 -10 14 -30 23 -44 24 -36 59
-92 125 -200 112 -183 145 -235 155 -247 5 -7 10 -15 10 -19 0 -4 29 -54 65
-113 36 -58 70 -113 75 -121 5 -8 54 -89 110 -178 55 -90 100 -168 100 -173 0
-5 3 -9 8 -9 4 0 12 -9 17 -19 9 -17 63 -108 106 -179 9 -15 63 -103 121 -197
103 -167 154 -250 233 -382 43 -70 59 -84 68 -58 6 14 222 369 381 625 39 63
73 119 76 125 7 15 65 110 110 184 22 34 40 67 40 72 0 5 5 9 10 9 6 0 10 7
10 15 0 8 5 15 10 15 6 0 10 4 10 10 0 12 92 164 103 168 4 2 7 8 7 13 0 6 16
35 36 66 54 85 56 93 25 138 -14 22 -35 57 -46 78 -11 20 -23 37 -27 37 -5 0
-8 5 -8 10 0 6 -27 53 -60 106 -33 52 -60 99 -60 105 0 5 -4 9 -9 9 -5 0 -11
8 -15 18 -7 21 -39 77 -58 100 -7 9 -19 28 -27 42 -8 14 -19 34 -25 44 -6 11
-15 25 -19 30 -4 6 -62 101 -129 211 -66 110 -132 218 -146 240 -44 70 -67
106 -157 255 -48 80 -95 156 -104 170 -27 42 -40 64 -53 90 -7 14 -16 30 -21
35 -15 19 -117 186 -117 192 0 3 -10 20 -23 37 -12 17 -49 76 -82 131 -33 55
-62 102 -65 105 -3 3 -12 19 -20 35 -8 17 -19 35 -23 40 -23 29 -224 365 -219
365 4 0 2 4 -4 8 -13 9 -224 350 -224 363 0 5 -4 9 -10 9 -5 0 -10 5 -10 11 0
6 -13 30 -30 54 -16 24 -30 46 -30 49 0 3 -21 38 -46 78 -67 105 -74 117 -76
125 -1 5 -16 28 -33 53 l-32 45 -796 3 c-438 1 -797 -1 -798 -5z"/>
<path d="M10975 12588 c-69 -119 -78 -133 -84 -138 -3 -3 -15 -21 -25 -40 -11
-19 -33 -57 -51 -85 -17 -27 -85 -138 -150 -245 -65 -107 -134 -221 -154 -253
-20 -31 -40 -65 -46 -75 -10 -18 -170 -279 -357 -584 -59 -97 -108 -179 -108
-182 0 -4 -5 -12 -10 -19 -16 -19 -49 -72 -155 -247 -54 -91 -102 -167 -106
-170 -3 -3 -9 -15 -13 -27 -4 -13 -12 -23 -17 -23 -5 0 -9 -4 -9 -9 0 -6 -28
-55 -62 -110 -35 -56 -68 -109 -73 -119 -51 -87 -102 -169 -112 -180 -7 -7
-13 -19 -13 -27 0 -7 -4 -15 -8 -17 -5 -1 -25 -32 -46 -68 -58 -102 -194 -323
-211 -342 -8 -10 -13 -18 -10 -18 5 0 -34 -63 -85 -140 -9 -14 -19 -32 -23
-40 -4 -8 -15 -27 -25 -42 -33 -51 -197 -323 -201 -333 -2 -5 -7 -12 -10 -15
-5 -4 -79 -123 -134 -215 -7 -11 -24 -39 -39 -63 -16 -24 -28 -45 -28 -47 0
-2 -45 -77 -100 -167 -55 -89 -104 -170 -109 -178 -5 -8 -67 -109 -138 -224
-70 -115 -129 -216 -131 -223 -2 -7 -7 -13 -12 -13 -4 0 -10 -8 -14 -17 -3
-10 -15 -31 -26 -48 -11 -16 -29 -46 -40 -65 -11 -19 -47 -78 -79 -130 -36
-58 -56 -99 -50 -105 5 -5 62 -7 132 -5 167 5 1437 4 1512 -2 67 -4 71 -2 107
62 56 99 123 205 130 208 4 2 8 8 8 12 0 5 38 71 85 147 46 76 99 163 116 193
17 30 34 57 38 60 3 3 12 16 19 29 8 13 22 39 33 57 10 18 29 50 42 71 14 21
63 101 109 178 276 455 514 845 536 880 15 22 32 49 38 60 6 11 21 36 33 55
12 19 24 43 27 53 4 9 10 17 14 17 4 0 10 8 13 18 6 17 38 73 47 82 3 3 25 38
49 78 24 39 45 72 46 72 2 0 4 -1018 4 -2263 0 -1245 3 -2270 5 -2278 3 -8 7
-25 10 -39 4 -27 43 -115 61 -139 43 -57 122 -124 175 -147 14 -7 39 -18 55
-25 24 -11 118 -14 445 -16 245 -2 432 1 457 7 75 18 151 59 206 113 54 52
104 127 112 166 2 12 6 25 9 29 3 5 8 31 12 58 5 36 10 7176 5 7287 -1 16 -46
17 -798 17 l-798 0 -30 -52z"/>
<path d="M4457 12232 c-26 -54 -71 -142 -101 -197 -30 -55 -68 -127 -84 -160
-17 -33 -47 -87 -66 -120 -20 -33 -43 -77 -53 -97 -10 -21 -21 -38 -26 -38 -4
0 -5 -4 -2 -10 3 -5 1 -10 -4 -10 -6 0 -11 -4 -11 -9 0 -12 -93 -175 -102
-179 -4 -2 -8 -9 -8 -16 0 -6 -15 -35 -34 -63 -19 -29 -37 -62 -41 -73 -3 -11
-11 -20 -16 -20 -5 0 -9 -5 -9 -10 0 -9 -32 -65 -78 -136 -6 -10 -20 -34 -29
-51 -9 -18 -20 -33 -25 -33 -4 0 -8 -4 -8 -10 0 -5 -15 -33 -33 -62 -170 -269
-212 -333 -219 -336 -4 -2 -8 -10 -8 -18 0 -8 -9 -23 -20 -34 -11 -11 -17 -20
-12 -20 4 0 2 -4 -3 -8 -6 -4 -34 -43 -63 -87 -29 -44 -59 -89 -66 -100 -8
-11 -35 -51 -61 -90 -82 -121 -130 -190 -135 -195 -3 -3 -19 -25 -35 -50 -37
-56 -247 -349 -295 -411 -19 -25 -42 -56 -50 -69 -8 -12 -19 -28 -25 -34 -5
-6 -73 -94 -149 -196 -77 -102 -143 -187 -146 -190 -3 -3 -16 -19 -28 -37 -13
-18 -31 -42 -42 -55 -20 -24 -66 -81 -110 -138 -14 -18 -30 -37 -35 -44 -6 -6
-46 -56 -90 -111 -44 -55 -82 -102 -85 -105 -6 -6 -101 -119 -113 -135 -4 -5
-19 -23 -33 -40 -14 -16 -39 -47 -57 -69 -18 -21 -48 -56 -67 -78 -19 -23 -43
-50 -53 -62 -30 -36 -81 -96 -102 -120 -20 -23 -116 -132 -148 -170 -26 -30
-117 -131 -152 -170 -16 -18 -64 -70 -105 -116 -41 -46 -102 -113 -135 -148
-33 -36 -75 -81 -93 -101 -211 -227 -464 -484 -786 -795 -107 -105 -194 -191
-192 -193 3 -3 98 23 126 34 20 8 20 8 55 17 17 5 51 15 76 23 25 8 55 16 65
18 10 2 19 4 19 5 0 1 7 3 15 5 8 1 78 20 155 40 77 21 145 38 150 39 46 9 82
20 90 26 9 6 32 14 80 26 6 1 22 4 37 7 15 3 31 8 35 10 5 3 24 8 43 11 19 3
61 12 92 21 32 8 72 17 89 20 18 3 35 8 39 10 4 2 20 7 36 10 16 3 65 14 109
25 44 12 93 23 109 25 15 2 36 7 46 10 10 3 28 8 39 10 12 3 29 7 38 9 19 4
301 66 412 91 71 15 81 24 242 215 58 70 105 124 114 134 6 6 39 47 75 91 35
44 67 82 70 85 12 12 166 204 182 228 9 13 20 28 25 31 4 3 30 35 58 71 27 36
52 67 55 70 4 3 26 32 51 65 24 33 52 69 61 80 21 26 167 214 193 249 11 15
28 37 39 49 10 12 32 42 49 67 30 42 49 68 72 94 6 6 28 36 50 66 22 30 43 60
48 65 4 6 26 35 48 65 22 30 48 64 57 75 9 11 32 42 51 70 19 27 38 54 43 60
5 5 47 62 93 125 46 63 89 122 97 130 7 9 26 36 43 60 16 25 35 52 43 60 7 8
56 76 108 150 53 74 105 146 115 160 11 14 51 70 90 125 38 55 77 109 85 120
19 27 99 143 203 296 l86 125 -1 1067 c0 587 -3 1069 -5 1071 -2 2 -25 -39
-52 -92z"/>
<path d="M12972 11260 c0 -1031 1 -1099 27 -1120 13 -11 51 -70 51 -79 0 -5 4
-11 8 -13 4 -1 42 -52 82 -113 41 -60 80 -116 87 -125 10 -12 85 -117 272
-381 14 -20 71 -99 126 -174 55 -76 112 -156 128 -177 15 -22 32 -45 37 -51 9
-10 71 -95 158 -215 23 -32 69 -93 87 -114 8 -10 12 -18 8 -18 -4 0 0 -6 9
-12 9 -7 42 -49 74 -93 32 -44 63 -85 69 -92 29 -35 35 -43 31 -43 -2 0 4 -10
15 -22 11 -13 76 -97 145 -188 69 -91 136 -178 149 -195 23 -28 63 -80 105
-135 73 -95 340 -428 358 -446 6 -7 12 -15 12 -18 0 -3 8 -14 18 -24 9 -10 33
-37 52 -61 19 -23 42 -51 50 -61 8 -9 33 -39 55 -66 22 -26 49 -58 60 -70 11
-12 36 -41 57 -65 109 -131 157 -179 179 -179 10 0 56 -9 102 -19 45 -11 94
-22 107 -25 55 -11 77 -16 121 -26 26 -6 53 -13 60 -14 8 -2 25 -6 39 -9 14
-4 36 -9 50 -11 14 -2 43 -9 65 -14 22 -6 51 -13 65 -16 14 -2 102 -23 195
-46 94 -23 177 -43 185 -45 8 -2 49 -11 90 -20 41 -9 100 -25 130 -35 30 -10
116 -35 190 -54 74 -19 169 -44 210 -56 41 -11 83 -23 94 -25 19 -4 122 -35
220 -66 33 -11 61 -17 63 -15 2 2 -29 34 -68 72 -150 143 -718 714 -824 828
-60 65 -128 138 -150 161 -22 24 -71 77 -110 120 -38 42 -85 93 -104 114 -34
37 -142 158 -174 195 -10 12 -40 46 -67 76 -27 30 -58 66 -70 80 -12 14 -31
36 -43 50 -12 14 -47 55 -77 90 -30 36 -59 70 -65 76 -5 6 -28 32 -50 59 -22
27 -56 67 -75 90 -20 22 -67 78 -105 125 -37 47 -74 92 -82 100 -11 13 -142
174 -165 205 -9 11 -112 141 -131 165 -7 8 -42 53 -77 100 -36 47 -67 87 -70
90 -3 3 -24 30 -47 61 -23 31 -49 63 -58 72 -9 10 -14 17 -10 17 3 0 1 6 -5
13 -6 6 -24 27 -40 46 -17 19 -30 38 -30 42 0 4 -6 14 -13 21 -14 14 -118 153
-156 208 -13 19 -26 37 -30 40 -4 3 -15 18 -25 35 -11 16 -24 34 -29 40 -5 5
-60 84 -123 175 -63 91 -122 173 -129 183 -8 9 -15 20 -15 23 0 3 -13 23 -30
44 -16 21 -30 42 -30 48 0 6 -3 12 -7 14 -11 5 -53 66 -53 77 0 5 -3 11 -7 13
-12 5 -53 66 -53 78 0 5 -4 10 -8 10 -5 0 -15 12 -23 28 -8 15 -18 32 -22 37
-29 35 -328 511 -432 688 -39 65 -78 130 -87 145 -10 15 -22 36 -27 48 -5 12
-26 46 -45 77 -20 31 -36 60 -36 65 0 5 -10 25 -23 43 -13 19 -45 75 -71 124
-27 50 -52 95 -56 100 -4 6 -38 69 -75 140 -38 72 -76 145 -87 163 -10 18 -18
39 -18 46 0 8 -4 16 -9 18 -5 2 -24 35 -44 73 l-35 70 0 -1075z"/>
<path d="M8377 7183 c-1 0 -148 -4 -327 -8 -489 -11 -603 -15 -890 -30 -47 -2
-141 -7 -210 -10 -69 -4 -147 -8 -175 -10 -27 -3 -98 -7 -157 -10 -59 -3 -131
-7 -160 -9 -52 -5 -190 -15 -278 -21 -25 -2 -74 -6 -110 -9 -36 -3 -94 -8
-130 -11 -36 -3 -90 -7 -120 -10 -30 -3 -80 -8 -110 -10 -79 -7 -147 -13 -205
-20 -27 -3 -79 -7 -115 -10 -36 -3 -81 -8 -100 -10 -66 -8 -125 -15 -175 -20
-27 -2 -75 -8 -105 -12 -30 -3 -70 -7 -87 -7 -18 -1 -33 -3 -33 -6 0 -3 -15
-5 -33 -6 -36 -1 -141 -13 -172 -20 -11 -2 -42 -6 -70 -9 -100 -9 -143 -14
-171 -20 -16 -3 -51 -7 -79 -10 -27 -3 -61 -7 -75 -10 -14 -3 -48 -8 -76 -10
-28 -3 -62 -8 -75 -10 -22 -5 -44 -8 -139 -20 -19 -3 -44 -7 -55 -9 -25 -5
-144 -19 -167 -20 -10 0 -18 -4 -18 -9 0 -4 -4 -6 -8 -3 -4 2 -43 -2 -86 -9
-44 -8 -82 -14 -85 -13 -3 0 -8 -1 -11 -2 -3 -1 -16 -3 -30 -5 -14 -1 -42 -5
-62 -9 -21 -3 -54 -9 -74 -12 -20 -3 -45 -7 -54 -9 -10 -2 -40 -7 -67 -11 -26
-3 -57 -8 -68 -11 -11 -2 -38 -6 -60 -9 -22 -3 -46 -7 -54 -10 -8 -3 -30 -7
-50 -10 -20 -3 -58 -9 -86 -14 -27 -5 -66 -12 -85 -15 -55 -10 -192 -34 -220
-40 -23 -4 -73 -14 -110 -20 -18 -3 -175 -33 -210 -40 -14 -3 -74 -14 -135
-26 -141 -27 -140 -27 -140 -29 0 -1 -11 -3 -25 -6 -14 -2 -50 -9 -80 -16 -30
-6 -62 -13 -70 -14 -8 -2 -31 -6 -50 -10 -19 -5 -39 -9 -45 -9 -5 -1 -21 -5
-35 -8 -14 -4 -37 -9 -52 -11 -15 -3 -31 -7 -35 -9 -5 -3 -24 -8 -43 -11 -19
-3 -107 -21 -194 -41 -88 -20 -169 -37 -180 -40 -12 -2 -21 -4 -21 -5 0 -2
-16 -5 -58 -13 -15 -3 -35 -8 -45 -11 -9 -3 -28 -7 -42 -10 -14 -2 -101 -23
-195 -46 -93 -23 -177 -43 -185 -45 -8 -2 -53 -13 -100 -25 -47 -13 -94 -24
-105 -26 -11 -2 -54 -13 -95 -24 -41 -11 -82 -22 -90 -24 -8 -2 -42 -11 -75
-20 -71 -20 -88 -24 -97 -25 -13 -2 -9 -18 5 -18 12 0 242 -67 287 -83 14 -5
36 -12 50 -14 14 -3 43 -10 65 -16 37 -10 176 -45 220 -55 35 -8 69 -16 94
-21 12 -3 52 -11 87 -20 35 -8 76 -16 91 -18 16 -2 96 -16 180 -30 84 -14 156
-26 160 -25 4 1 10 0 13 -1 14 -5 92 -16 200 -26 66 -7 105 -12 105 -14 0 -2
231 -20 350 -27 236 -12 765 -6 960 13 28 2 75 6 105 9 30 3 69 7 85 9 17 2
64 7 105 11 41 4 84 9 95 11 11 3 40 6 65 9 25 2 56 7 70 10 14 3 43 8 65 11
22 3 51 7 65 9 14 1 39 5 55 8 17 3 50 9 75 12 25 4 54 9 65 11 11 3 40 7 65
10 25 3 59 8 75 11 17 3 41 6 55 8 24 3 87 12 140 20 14 2 52 7 85 10 33 4 62
8 65 10 3 2 33 6 67 10 34 3 72 8 84 10 36 7 92 15 139 20 24 2 59 7 79 9 40
5 117 15 171 21 83 9 149 17 210 25 36 4 72 8 80 8 8 0 33 3 55 6 93 12 153
18 200 21 28 2 50 4 50 5 0 1 16 3 35 5 34 3 127 12 200 19 19 2 71 7 115 11
44 4 100 9 125 11 25 3 74 7 110 10 36 3 85 7 110 9 25 2 77 6 116 9 66 4 124
9 289 21 33 3 105 8 160 11 55 3 125 7 155 9 30 2 109 6 175 10 66 3 158 8
205 10 153 8 591 24 850 30 199 5 1126 5 1335 0 326 -8 643 -21 1020 -41 50
-2 115 -5 145 -7 l55 -2 0 500 0 500 -35 1 c-472 26 -1235 46 -1888 48 -211 0
-384 0 -385 -1z"/>
<path d="M12979 6894 c-4 -121 0 -976 5 -982 4 -4 11 -7 14 -8 15 -1 159 -21
207 -28 17 -3 53 -7 81 -10 27 -3 57 -7 65 -10 8 -3 37 -7 64 -10 28 -3 61 -8
75 -11 14 -3 43 -7 65 -10 22 -3 51 -7 65 -9 14 -3 43 -7 65 -10 22 -3 51 -8
65 -11 14 -2 45 -7 70 -10 25 -3 59 -7 75 -10 79 -12 112 -17 135 -20 14 -1
45 -6 70 -9 82 -12 114 -16 170 -21 30 -3 64 -7 75 -9 18 -4 101 -10 270 -22
180 -12 533 -17 730 -9 224 8 523 32 635 50 14 2 52 7 85 11 33 3 69 8 80 11
11 2 36 6 55 8 19 2 46 7 60 10 14 3 43 8 65 10 22 3 64 10 92 16 29 6 63 12
75 13 13 2 30 6 38 10 8 3 31 8 50 10 19 3 35 5 35 6 0 1 7 3 15 5 8 1 42 9
75 16 33 7 65 14 70 15 6 1 12 3 15 4 3 1 12 3 20 5 8 2 69 17 135 34 66 18
127 33 135 35 8 3 27 9 43 15 15 6 27 8 27 5 0 -4 7 0 17 7 9 8 17 13 17 11 2
-7 90 18 196 55 20 8 -1 14 -357 109 -54 14 -106 28 -115 30 -40 9 -127 30
-163 40 -11 3 -29 7 -40 9 -11 2 -49 11 -85 20 -35 9 -74 18 -85 20 -11 2 -20
4 -20 5 0 1 -11 4 -25 6 -14 3 -41 9 -60 14 -19 5 -48 12 -65 14 -36 7 -41 8
-180 40 -60 15 -122 28 -136 30 -21 4 -148 30 -289 61 -56 12 -179 38 -200 41
-14 3 -81 17 -150 30 -69 14 -136 28 -150 30 -14 2 -36 7 -50 10 -14 3 -36 8
-50 10 -14 3 -47 9 -75 14 -27 5 -61 12 -75 14 -14 3 -36 7 -50 10 -13 3 -40
8 -60 11 -20 3 -47 8 -60 11 -14 3 -38 7 -55 10 -16 3 -70 12 -120 21 -124 21
-124 21 -175 28 -25 3 -52 8 -60 10 -15 4 -75 15 -115 21 -11 1 -20 3 -20 4 0
1 -18 4 -40 6 -22 3 -80 12 -130 20 -49 8 -101 17 -115 19 -14 2 -47 7 -75 11
-27 4 -57 9 -65 10 -52 7 -118 17 -135 20 -10 2 -37 6 -60 9 -22 3 -69 11
-105 16 -36 6 -85 13 -110 16 -50 5 -85 11 -85 13 0 0 -27 3 -60 6 -32 3 -65
10 -72 16 -8 7 -13 7 -13 0 0 -6 -13 -7 -37 -2 -21 5 -60 11 -88 14 -27 3 -67
8 -87 12 -33 6 -38 4 -39 -12z"/>
<path d="M6377 5743 c-2 -1 -45 -4 -97 -8 -52 -3 -111 -8 -130 -10 -19 -2 -69
-7 -110 -10 -77 -6 -116 -9 -229 -21 -107 -10 -144 -14 -201 -19 -30 -3 -75
-7 -100 -10 -25 -2 -72 -7 -105 -10 -33 -3 -73 -8 -90 -11 -16 -3 -55 -7 -85
-10 -30 -2 -68 -6 -85 -8 -16 -3 -58 -7 -92 -11 -34 -3 -73 -7 -87 -9 -14 -1
-29 -6 -33 -9 -8 -9 -10 -197 -1 -197 3 0 4 -8 1 -18 -6 -24 40 -144 77 -203
42 -65 118 -133 180 -160 14 -6 37 -17 51 -25 14 -7 38 -16 55 -20 48 -13 754
-15 794 -3 19 6 40 12 45 13 49 14 128 55 138 73 4 7 13 13 19 13 33 0 129
136 164 230 20 57 32 276 20 373 -2 15 0 27 4 27 4 0 5 11 2 25 -4 23 -8 25
-54 22 -27 -1 -50 -3 -51 -4z"/>
</g>
</svg>
