<svg width="55" height="24" viewBox="0 0 55 24" fill="none" xmlns="http://www.w3.org/2000/svg">
<path d="M15.3964 21.997V22.4635C15.3964 22.871 15.5583 23.2618 15.8465 23.55C16.1346 23.8381 16.5254 24 16.9329 24H18.7124C19.1199 24 19.5108 23.8381 19.7989 23.55C20.0871 23.2618 20.2489 22.871 20.2489 22.4635V21.5306C20.2489 21.5306 18.1637 21.6717 15.3964 21.997Z" fill="#191701"/>
<path d="M26.7516 10.4184L20.3861 0H15.3964V16.6075C16.9368 16.4311 18.5557 16.2783 20.2489 16.1607V8.6232L24.051 14.8437L26.7516 10.4184Z" fill="#282827"/>
<path d="M34.3987 0L27.3904 11.4767L24.6898 15.902L24.7211 15.949C25.5991 15.9294 26.4889 15.9137 27.3904 15.9137C28.2919 15.9137 29.1895 15.9137 30.0675 15.9529L34.5281 8.62321V22.632C34.5281 22.9948 34.6722 23.3427 34.9287 23.5993C35.1853 23.8558 35.5332 24 35.896 24H38.0126C38.3754 24 38.7234 23.8558 38.9799 23.5993C39.2365 23.3427 39.3806 22.9948 39.3806 22.632V0H34.3987Z" fill="#282827"/>
<path d="M54.3733 20.5899L54.2165 20.6369C50.7582 21.7535 47.085 22.0369 43.4963 21.4639H43.4689L43.3121 21.4404L42.7006 21.3464L41.6619 21.1935L40.878 21.0837L40.5566 21.0406V17.9049L41.8932 18.0813L42.391 18.1518C42.5556 18.1754 42.7163 18.2028 42.8809 18.2224L43.8334 18.3713L44.6173 18.4929L45.2053 18.5948C46.0127 18.728 46.777 18.8652 47.4983 19.0063L48.486 19.2023L48.8545 19.2768L49.219 19.3552L50.2185 19.5668C52.2606 20.0098 53.7031 20.3821 54.3733 20.5899Z" fill="#FFD30D"/>
<path d="M27.3944 17.0504C18.2787 17.0504 9.20178 18.2363 0.392029 20.5781L0.548812 20.6251C4.01529 21.7416 7.69645 22.0237 11.2926 21.4482C16.6181 20.5986 22.0016 20.1635 27.3944 20.1469C29.4601 20.1469 31.463 20.2175 33.3876 20.3351V17.1994C31.4669 17.1131 29.4601 17.0504 27.3944 17.0504Z" fill="#FFD30D"/>
<path d="M53.2564 18.1519C53.3224 18.2271 53.3631 18.3212 53.3728 18.4208C53.3825 18.5204 53.3607 18.6205 53.3105 18.7071C53.2603 18.7937 53.1842 18.8623 53.0929 18.9033C53.0017 18.9444 52.8998 18.9557 52.8017 18.9358C52.4098 18.8339 50.6577 18.3949 48.2745 17.8736C45.5974 14.879 41.6112 9.28565 40.5372 7.68252V0.940735C44.5195 8.92896 50.5597 15.4512 53.2564 18.1519Z" fill="#FFD30D"/>
<path d="M52.9502 17.85L52.2094 18.8142C53.6048 19.1474 54.6396 19.4884 54.6396 19.4884L52.9502 17.85Z" fill="#EDDB03"/>
<path d="M1.38374 18.1519C1.31776 18.2271 1.27704 18.3212 1.26733 18.4208C1.25762 18.5204 1.27941 18.6205 1.32962 18.7071C1.37983 18.7937 1.45594 18.8623 1.54721 18.9033C1.63849 18.9444 1.74035 18.9557 1.83842 18.9358C2.23039 18.8339 3.98247 18.3949 6.36561 17.8736C9.04272 14.879 13.029 9.28565 14.103 7.68252V0.940735C10.1206 8.92896 4.08438 15.4512 1.38374 18.1519Z" fill="#FFD30D"/>
<path d="M1.68152 17.85L2.43018 18.8142C1.03478 19.1474 0 19.4884 0 19.4884L1.68152 17.85Z" fill="#EDDB03"/>
</svg>
