<svg width="660" height="420" viewBox="0 0 660 420" fill="none" xmlns="http://www.w3.org/2000/svg">
<rect opacity="0.45" x="0.5" y="0.5" width="659" height="419" rx="11.5" fill="#F0F2F7" stroke="white"/>
<path d="M329.628 210.338C330.296 210.338 330.838 209.795 330.838 209.125C330.838 208.456 330.296 207.913 329.628 207.913C328.959 207.913 328.417 208.456 328.417 209.125C328.417 209.795 328.959 210.338 329.628 210.338Z" fill="#383A48"/>
<path d="M329.628 216.33C330.296 216.33 330.838 215.787 330.838 215.117C330.838 214.447 330.296 213.904 329.628 213.904C328.959 213.904 328.417 214.447 328.417 215.117C328.417 215.787 328.959 216.33 329.628 216.33Z" fill="#383A48"/>
<path d="M329.628 222.322C330.296 222.322 330.838 221.779 330.838 221.11C330.838 220.44 330.296 219.897 329.628 219.897C328.959 219.897 328.417 220.44 328.417 221.11C328.417 221.779 328.959 222.322 329.628 222.322Z" fill="#383A48"/>
<path d="M329.628 228.289C330.296 228.289 330.838 227.746 330.838 227.076C330.838 226.406 330.296 225.863 329.628 225.863C328.959 225.863 328.417 226.406 328.417 227.076C328.417 227.746 328.959 228.289 329.628 228.289Z" fill="#383A48"/>
<path d="M329.628 234.281C330.296 234.281 330.838 233.738 330.838 233.068C330.838 232.398 330.296 231.855 329.628 231.855C328.959 231.855 328.417 232.398 328.417 233.068C328.417 233.738 328.959 234.281 329.628 234.281Z" fill="#383A48"/>
<path d="M329.628 240.272C330.296 240.272 330.838 239.729 330.838 239.059C330.838 238.39 330.296 237.847 329.628 237.847C328.959 237.847 328.417 238.39 328.417 239.059C328.417 239.729 328.959 240.272 329.628 240.272Z" fill="#383A48"/>
<path d="M329.628 246.239C330.296 246.239 330.838 245.696 330.838 245.026C330.838 244.356 330.296 243.813 329.628 243.813C328.959 243.813 328.417 244.356 328.417 245.026C328.417 245.696 328.959 246.239 329.628 246.239Z" fill="#383A48"/>
<path d="M329.628 252.232C330.296 252.232 330.838 251.689 330.838 251.019C330.838 250.349 330.296 249.806 329.628 249.806C328.959 249.806 328.417 250.349 328.417 251.019C328.417 251.689 328.959 252.232 329.628 252.232Z" fill="#383A48"/>
<path d="M329.628 258.223C330.296 258.223 330.838 257.68 330.838 257.01C330.838 256.34 330.296 255.797 329.628 255.797C328.959 255.797 328.417 256.34 328.417 257.01C328.417 257.68 328.959 258.223 329.628 258.223Z" fill="#383A48"/>
<path d="M329.628 264.19C330.296 264.19 330.838 263.647 330.838 262.977C330.838 262.307 330.296 261.764 329.628 261.764C328.959 261.764 328.417 262.307 328.417 262.977C328.417 263.647 328.959 264.19 329.628 264.19Z" fill="#383A48"/>
<path d="M329.628 270.181C330.296 270.181 330.838 269.638 330.838 268.968C330.838 268.298 330.296 267.755 329.628 267.755C328.959 267.755 328.417 268.298 328.417 268.968C328.417 269.638 328.959 270.181 329.628 270.181Z" fill="#383A48"/>
<path d="M329.628 276.173C330.296 276.173 330.838 275.63 330.838 274.96C330.838 274.29 330.296 273.747 329.628 273.747C328.959 273.747 328.417 274.29 328.417 274.96C328.417 275.63 328.959 276.173 329.628 276.173Z" fill="#383A48"/>
<path d="M329.628 282.14C330.296 282.14 330.838 281.597 330.838 280.928C330.838 280.258 330.296 279.715 329.628 279.715C328.959 279.715 328.417 280.258 328.417 280.928C328.417 281.597 328.959 282.14 329.628 282.14Z" fill="#383A48"/>
<path d="M329.628 288.131C330.296 288.131 330.838 287.588 330.838 286.919C330.838 286.249 330.296 285.706 329.628 285.706C328.959 285.706 328.417 286.249 328.417 286.919C328.417 287.588 328.959 288.131 329.628 288.131Z" fill="#383A48"/>
<path d="M323.647 210.338C324.316 210.338 324.858 209.795 324.858 209.125C324.858 208.456 324.316 207.913 323.647 207.913C322.978 207.913 322.436 208.456 322.436 209.125C322.436 209.795 322.978 210.338 323.647 210.338Z" fill="#383A48"/>
<path d="M323.647 216.33C324.316 216.33 324.858 215.787 324.858 215.117C324.858 214.447 324.316 213.904 323.647 213.904C322.978 213.904 322.436 214.447 322.436 215.117C322.436 215.787 322.978 216.33 323.647 216.33Z" fill="#383A48"/>
<path d="M323.647 222.322C324.316 222.322 324.858 221.779 324.858 221.11C324.858 220.44 324.316 219.897 323.647 219.897C322.978 219.897 322.436 220.44 322.436 221.11C322.436 221.779 322.978 222.322 323.647 222.322Z" fill="#383A48"/>
<path d="M323.647 228.289C324.316 228.289 324.858 227.746 324.858 227.076C324.858 226.406 324.316 225.863 323.647 225.863C322.978 225.863 322.436 226.406 322.436 227.076C322.436 227.746 322.978 228.289 323.647 228.289Z" fill="#383A48"/>
<path d="M323.647 234.281C324.316 234.281 324.858 233.738 324.858 233.068C324.858 232.398 324.316 231.855 323.647 231.855C322.978 231.855 322.436 232.398 322.436 233.068C322.436 233.738 322.978 234.281 323.647 234.281Z" fill="#383A48"/>
<path d="M323.647 240.272C324.316 240.272 324.858 239.729 324.858 239.059C324.858 238.39 324.316 237.847 323.647 237.847C322.978 237.847 322.436 238.39 322.436 239.059C322.436 239.729 322.978 240.272 323.647 240.272Z" fill="#383A48"/>
<path d="M323.647 246.239C324.316 246.239 324.858 245.696 324.858 245.026C324.858 244.356 324.316 243.813 323.647 243.813C322.978 243.813 322.436 244.356 322.436 245.026C322.436 245.696 322.978 246.239 323.647 246.239Z" fill="#383A48"/>
<path d="M323.647 252.232C324.316 252.232 324.858 251.689 324.858 251.019C324.858 250.349 324.316 249.806 323.647 249.806C322.978 249.806 322.436 250.349 322.436 251.019C322.436 251.689 322.978 252.232 323.647 252.232Z" fill="#383A48"/>
<path d="M323.647 258.223C324.316 258.223 324.858 257.68 324.858 257.01C324.858 256.34 324.316 255.797 323.647 255.797C322.978 255.797 322.436 256.34 322.436 257.01C322.436 257.68 322.978 258.223 323.647 258.223Z" fill="#383A48"/>
<path d="M323.647 264.19C324.316 264.19 324.858 263.647 324.858 262.977C324.858 262.307 324.316 261.764 323.647 261.764C322.978 261.764 322.436 262.307 322.436 262.977C322.436 263.647 322.978 264.19 323.647 264.19Z" fill="#383A48"/>
<path d="M323.647 270.181C324.316 270.181 324.858 269.638 324.858 268.968C324.858 268.298 324.316 267.755 323.647 267.755C322.978 267.755 322.436 268.298 322.436 268.968C322.436 269.638 322.978 270.181 323.647 270.181Z" fill="#383A48"/>
<path d="M323.647 276.173C324.316 276.173 324.858 275.63 324.858 274.96C324.858 274.29 324.316 273.747 323.647 273.747C322.978 273.747 322.436 274.29 322.436 274.96C322.436 275.63 322.978 276.173 323.647 276.173Z" fill="#383A48"/>
<path d="M323.647 282.14C324.316 282.14 324.858 281.597 324.858 280.928C324.858 280.258 324.316 279.715 323.647 279.715C322.978 279.715 322.436 280.258 322.436 280.928C322.436 281.597 322.978 282.14 323.647 282.14Z" fill="#383A48"/>
<path d="M323.647 288.131C324.316 288.131 324.858 287.588 324.858 286.919C324.858 286.249 324.316 285.706 323.647 285.706C322.978 285.706 322.436 286.249 322.436 286.919C322.436 287.588 322.978 288.131 323.647 288.131Z" fill="#383A48"/>
<path d="M317.69 210.338C318.359 210.338 318.901 209.795 318.901 209.125C318.901 208.456 318.359 207.913 317.69 207.913C317.021 207.913 316.479 208.456 316.479 209.125C316.479 209.795 317.021 210.338 317.69 210.338Z" fill="#383A48"/>
<path d="M317.69 216.33C318.359 216.33 318.901 215.787 318.901 215.117C318.901 214.447 318.359 213.904 317.69 213.904C317.021 213.904 316.479 214.447 316.479 215.117C316.479 215.787 317.021 216.33 317.69 216.33Z" fill="#383A48"/>
<path d="M317.69 222.322C318.359 222.322 318.901 221.779 318.901 221.11C318.901 220.44 318.359 219.897 317.69 219.897C317.021 219.897 316.479 220.44 316.479 221.11C316.479 221.779 317.021 222.322 317.69 222.322Z" fill="#383A48"/>
<path d="M317.69 228.289C318.359 228.289 318.901 227.746 318.901 227.076C318.901 226.406 318.359 225.863 317.69 225.863C317.021 225.863 316.479 226.406 316.479 227.076C316.479 227.746 317.021 228.289 317.69 228.289Z" fill="#383A48"/>
<path d="M317.69 234.281C318.359 234.281 318.901 233.738 318.901 233.068C318.901 232.398 318.359 231.855 317.69 231.855C317.021 231.855 316.479 232.398 316.479 233.068C316.479 233.738 317.021 234.281 317.69 234.281Z" fill="#383A48"/>
<path d="M317.69 240.272C318.359 240.272 318.901 239.729 318.901 239.059C318.901 238.39 318.359 237.847 317.69 237.847C317.021 237.847 316.479 238.39 316.479 239.059C316.479 239.729 317.021 240.272 317.69 240.272Z" fill="#383A48"/>
<path d="M317.69 246.239C318.359 246.239 318.901 245.696 318.901 245.026C318.901 244.356 318.359 243.813 317.69 243.813C317.021 243.813 316.479 244.356 316.479 245.026C316.479 245.696 317.021 246.239 317.69 246.239Z" fill="#383A48"/>
<path d="M317.69 252.232C318.359 252.232 318.901 251.689 318.901 251.019C318.901 250.349 318.359 249.806 317.69 249.806C317.021 249.806 316.479 250.349 316.479 251.019C316.479 251.689 317.021 252.232 317.69 252.232Z" fill="#383A48"/>
<path d="M317.69 258.223C318.359 258.223 318.901 257.68 318.901 257.01C318.901 256.34 318.359 255.797 317.69 255.797C317.021 255.797 316.479 256.34 316.479 257.01C316.479 257.68 317.021 258.223 317.69 258.223Z" fill="#383A48"/>
<path d="M317.69 264.19C318.359 264.19 318.901 263.647 318.901 262.977C318.901 262.307 318.359 261.764 317.69 261.764C317.021 261.764 316.479 262.307 316.479 262.977C316.479 263.647 317.021 264.19 317.69 264.19Z" fill="#383A48"/>
<path d="M317.69 270.181C318.359 270.181 318.901 269.638 318.901 268.968C318.901 268.298 318.359 267.755 317.69 267.755C317.021 267.755 316.479 268.298 316.479 268.968C316.479 269.638 317.021 270.181 317.69 270.181Z" fill="#383A48"/>
<path d="M317.69 276.173C318.359 276.173 318.901 275.63 318.901 274.96C318.901 274.29 318.359 273.747 317.69 273.747C317.021 273.747 316.479 274.29 316.479 274.96C316.479 275.63 317.021 276.173 317.69 276.173Z" fill="#383A48"/>
<path d="M317.69 282.14C318.359 282.14 318.901 281.597 318.901 280.928C318.901 280.258 318.359 279.715 317.69 279.715C317.021 279.715 316.479 280.258 316.479 280.928C316.479 281.597 317.021 282.14 317.69 282.14Z" fill="#383A48"/>
<path d="M317.69 288.131C318.359 288.131 318.901 287.588 318.901 286.919C318.901 286.249 318.359 285.706 317.69 285.706C317.021 285.706 316.479 286.249 316.479 286.919C316.479 287.588 317.021 288.131 317.69 288.131Z" fill="#383A48"/>
<path d="M311.707 210.338C312.376 210.338 312.918 209.795 312.918 209.125C312.918 208.456 312.376 207.913 311.707 207.913C311.039 207.913 310.496 208.456 310.496 209.125C310.496 209.795 311.039 210.338 311.707 210.338Z" fill="#383A48"/>
<path d="M311.707 216.33C312.376 216.33 312.918 215.787 312.918 215.117C312.918 214.447 312.376 213.904 311.707 213.904C311.039 213.904 310.496 214.447 310.496 215.117C310.496 215.787 311.039 216.33 311.707 216.33Z" fill="#383A48"/>
<path d="M311.707 222.322C312.376 222.322 312.918 221.779 312.918 221.11C312.918 220.44 312.376 219.897 311.707 219.897C311.039 219.897 310.496 220.44 310.496 221.11C310.496 221.779 311.039 222.322 311.707 222.322Z" fill="#383A48"/>
<path d="M311.707 228.289C312.376 228.289 312.918 227.746 312.918 227.076C312.918 226.406 312.376 225.863 311.707 225.863C311.039 225.863 310.496 226.406 310.496 227.076C310.496 227.746 311.039 228.289 311.707 228.289Z" fill="#383A48"/>
<path d="M311.707 234.281C312.376 234.281 312.918 233.738 312.918 233.068C312.918 232.398 312.376 231.855 311.707 231.855C311.039 231.855 310.496 232.398 310.496 233.068C310.496 233.738 311.039 234.281 311.707 234.281Z" fill="#383A48"/>
<path d="M311.707 240.272C312.376 240.272 312.918 239.729 312.918 239.059C312.918 238.39 312.376 237.847 311.707 237.847C311.039 237.847 310.496 238.39 310.496 239.059C310.496 239.729 311.039 240.272 311.707 240.272Z" fill="#383A48"/>
<path d="M311.707 246.239C312.376 246.239 312.918 245.696 312.918 245.026C312.918 244.356 312.376 243.813 311.707 243.813C311.039 243.813 310.496 244.356 310.496 245.026C310.496 245.696 311.039 246.239 311.707 246.239Z" fill="#383A48"/>
<path d="M311.707 252.232C312.376 252.232 312.918 251.689 312.918 251.019C312.918 250.349 312.376 249.806 311.707 249.806C311.039 249.806 310.496 250.349 310.496 251.019C310.496 251.689 311.039 252.232 311.707 252.232Z" fill="#383A48"/>
<path d="M311.707 258.223C312.376 258.223 312.918 257.68 312.918 257.01C312.918 256.34 312.376 255.797 311.707 255.797C311.039 255.797 310.496 256.34 310.496 257.01C310.496 257.68 311.039 258.223 311.707 258.223Z" fill="#383A48"/>
<path d="M311.707 264.19C312.376 264.19 312.918 263.647 312.918 262.977C312.918 262.307 312.376 261.764 311.707 261.764C311.039 261.764 310.496 262.307 310.496 262.977C310.496 263.647 311.039 264.19 311.707 264.19Z" fill="#383A48"/>
<path d="M311.707 270.181C312.376 270.181 312.918 269.638 312.918 268.968C312.918 268.298 312.376 267.755 311.707 267.755C311.039 267.755 310.496 268.298 310.496 268.968C310.496 269.638 311.039 270.181 311.707 270.181Z" fill="#383A48"/>
<path d="M311.707 276.173C312.376 276.173 312.918 275.63 312.918 274.96C312.918 274.29 312.376 273.747 311.707 273.747C311.039 273.747 310.496 274.29 310.496 274.96C310.496 275.63 311.039 276.173 311.707 276.173Z" fill="#383A48"/>
<path d="M311.707 282.14C312.376 282.14 312.918 281.597 312.918 280.928C312.918 280.258 312.376 279.715 311.707 279.715C311.039 279.715 310.496 280.258 310.496 280.928C310.496 281.597 311.039 282.14 311.707 282.14Z" fill="#383A48"/>
<path d="M311.707 288.131C312.376 288.131 312.918 287.588 312.918 286.919C312.918 286.249 312.376 285.706 311.707 285.706C311.039 285.706 310.496 286.249 310.496 286.919C310.496 287.588 311.039 288.131 311.707 288.131Z" fill="#383A48"/>
<path d="M305.726 210.338C306.395 210.338 306.937 209.795 306.937 209.125C306.937 208.456 306.395 207.913 305.726 207.913C305.058 207.913 304.516 208.456 304.516 209.125C304.516 209.795 305.058 210.338 305.726 210.338Z" fill="#383A48"/>
<path d="M305.726 216.33C306.395 216.33 306.937 215.787 306.937 215.117C306.937 214.447 306.395 213.904 305.726 213.904C305.058 213.904 304.516 214.447 304.516 215.117C304.516 215.787 305.058 216.33 305.726 216.33Z" fill="#383A48"/>
<path d="M305.726 222.322C306.395 222.322 306.937 221.779 306.937 221.11C306.937 220.44 306.395 219.897 305.726 219.897C305.058 219.897 304.516 220.44 304.516 221.11C304.516 221.779 305.058 222.322 305.726 222.322Z" fill="#383A48"/>
<path d="M305.726 228.289C306.395 228.289 306.937 227.746 306.937 227.076C306.937 226.406 306.395 225.863 305.726 225.863C305.058 225.863 304.516 226.406 304.516 227.076C304.516 227.746 305.058 228.289 305.726 228.289Z" fill="#383A48"/>
<path d="M305.726 234.281C306.395 234.281 306.937 233.738 306.937 233.068C306.937 232.398 306.395 231.855 305.726 231.855C305.058 231.855 304.516 232.398 304.516 233.068C304.516 233.738 305.058 234.281 305.726 234.281Z" fill="#383A48"/>
<path d="M305.726 240.272C306.395 240.272 306.937 239.729 306.937 239.059C306.937 238.39 306.395 237.847 305.726 237.847C305.058 237.847 304.516 238.39 304.516 239.059C304.516 239.729 305.058 240.272 305.726 240.272Z" fill="#383A48"/>
<path d="M305.726 246.239C306.395 246.239 306.937 245.696 306.937 245.026C306.937 244.356 306.395 243.813 305.726 243.813C305.058 243.813 304.516 244.356 304.516 245.026C304.516 245.696 305.058 246.239 305.726 246.239Z" fill="#383A48"/>
<path d="M305.726 252.232C306.395 252.232 306.937 251.689 306.937 251.019C306.937 250.349 306.395 249.806 305.726 249.806C305.058 249.806 304.516 250.349 304.516 251.019C304.516 251.689 305.058 252.232 305.726 252.232Z" fill="#383A48"/>
<path d="M305.726 258.223C306.395 258.223 306.937 257.68 306.937 257.01C306.937 256.34 306.395 255.797 305.726 255.797C305.058 255.797 304.516 256.34 304.516 257.01C304.516 257.68 305.058 258.223 305.726 258.223Z" fill="#383A48"/>
<path d="M305.726 264.19C306.395 264.19 306.937 263.647 306.937 262.977C306.937 262.307 306.395 261.764 305.726 261.764C305.058 261.764 304.516 262.307 304.516 262.977C304.516 263.647 305.058 264.19 305.726 264.19Z" fill="#383A48"/>
<path d="M305.726 270.181C306.395 270.181 306.937 269.638 306.937 268.968C306.937 268.298 306.395 267.755 305.726 267.755C305.058 267.755 304.516 268.298 304.516 268.968C304.516 269.638 305.058 270.181 305.726 270.181Z" fill="#383A48"/>
<path d="M305.726 276.173C306.395 276.173 306.937 275.63 306.937 274.96C306.937 274.29 306.395 273.747 305.726 273.747C305.058 273.747 304.516 274.29 304.516 274.96C304.516 275.63 305.058 276.173 305.726 276.173Z" fill="#383A48"/>
<path d="M305.726 282.14C306.395 282.14 306.937 281.597 306.937 280.928C306.937 280.258 306.395 279.715 305.726 279.715C305.058 279.715 304.516 280.258 304.516 280.928C304.516 281.597 305.058 282.14 305.726 282.14Z" fill="#383A48"/>
<path d="M305.726 288.131C306.395 288.131 306.937 287.588 306.937 286.919C306.937 286.249 306.395 285.706 305.726 285.706C305.058 285.706 304.516 286.249 304.516 286.919C304.516 287.588 305.058 288.131 305.726 288.131Z" fill="#383A48"/>
<path d="M299.769 210.338C300.438 210.338 300.98 209.795 300.98 209.125C300.98 208.456 300.438 207.913 299.769 207.913C299.101 207.913 298.558 208.456 298.558 209.125C298.558 209.795 299.101 210.338 299.769 210.338Z" fill="#383A48"/>
<path d="M299.769 216.33C300.438 216.33 300.98 215.787 300.98 215.117C300.98 214.447 300.438 213.904 299.769 213.904C299.101 213.904 298.558 214.447 298.558 215.117C298.558 215.787 299.101 216.33 299.769 216.33Z" fill="#383A48"/>
<path d="M299.769 222.322C300.438 222.322 300.98 221.779 300.98 221.11C300.98 220.44 300.438 219.897 299.769 219.897C299.101 219.897 298.558 220.44 298.558 221.11C298.558 221.779 299.101 222.322 299.769 222.322Z" fill="#383A48"/>
<path d="M299.769 228.289C300.438 228.289 300.98 227.746 300.98 227.076C300.98 226.406 300.438 225.863 299.769 225.863C299.101 225.863 298.558 226.406 298.558 227.076C298.558 227.746 299.101 228.289 299.769 228.289Z" fill="#383A48"/>
<path d="M299.769 234.281C300.438 234.281 300.98 233.738 300.98 233.068C300.98 232.398 300.438 231.855 299.769 231.855C299.101 231.855 298.558 232.398 298.558 233.068C298.558 233.738 299.101 234.281 299.769 234.281Z" fill="#383A48"/>
<path d="M299.769 240.272C300.438 240.272 300.98 239.729 300.98 239.059C300.98 238.39 300.438 237.847 299.769 237.847C299.101 237.847 298.558 238.39 298.558 239.059C298.558 239.729 299.101 240.272 299.769 240.272Z" fill="#383A48"/>
<path d="M299.769 246.239C300.438 246.239 300.98 245.696 300.98 245.026C300.98 244.356 300.438 243.813 299.769 243.813C299.101 243.813 298.558 244.356 298.558 245.026C298.558 245.696 299.101 246.239 299.769 246.239Z" fill="#383A48"/>
<path d="M299.769 252.232C300.438 252.232 300.98 251.689 300.98 251.019C300.98 250.349 300.438 249.806 299.769 249.806C299.101 249.806 298.558 250.349 298.558 251.019C298.558 251.689 299.101 252.232 299.769 252.232Z" fill="#383A48"/>
<path d="M299.769 258.223C300.438 258.223 300.98 257.68 300.98 257.01C300.98 256.34 300.438 255.797 299.769 255.797C299.101 255.797 298.558 256.34 298.558 257.01C298.558 257.68 299.101 258.223 299.769 258.223Z" fill="#383A48"/>
<path d="M299.769 264.19C300.438 264.19 300.98 263.647 300.98 262.977C300.98 262.307 300.438 261.764 299.769 261.764C299.101 261.764 298.558 262.307 298.558 262.977C298.558 263.647 299.101 264.19 299.769 264.19Z" fill="#383A48"/>
<path d="M299.769 270.181C300.438 270.181 300.98 269.638 300.98 268.968C300.98 268.298 300.438 267.755 299.769 267.755C299.101 267.755 298.558 268.298 298.558 268.968C298.558 269.638 299.101 270.181 299.769 270.181Z" fill="#383A48"/>
<path d="M299.769 276.173C300.438 276.173 300.98 275.63 300.98 274.96C300.98 274.29 300.438 273.747 299.769 273.747C299.101 273.747 298.558 274.29 298.558 274.96C298.558 275.63 299.101 276.173 299.769 276.173Z" fill="#383A48"/>
<path d="M299.769 282.14C300.438 282.14 300.98 281.597 300.98 280.928C300.98 280.258 300.438 279.715 299.769 279.715C299.101 279.715 298.558 280.258 298.558 280.928C298.558 281.597 299.101 282.14 299.769 282.14Z" fill="#383A48"/>
<path d="M299.769 288.131C300.438 288.131 300.98 287.588 300.98 286.919C300.98 286.249 300.438 285.706 299.769 285.706C299.101 285.706 298.558 286.249 298.558 286.919C298.558 287.588 299.101 288.131 299.769 288.131Z" fill="#383A48"/>
<path d="M293.787 210.338C294.455 210.338 294.997 209.795 294.997 209.125C294.997 208.456 294.455 207.913 293.787 207.913C293.118 207.913 292.576 208.456 292.576 209.125C292.576 209.795 293.118 210.338 293.787 210.338Z" fill="#383A48"/>
<path d="M293.787 216.33C294.455 216.33 294.997 215.787 294.997 215.117C294.997 214.447 294.455 213.904 293.787 213.904C293.118 213.904 292.576 214.447 292.576 215.117C292.576 215.787 293.118 216.33 293.787 216.33Z" fill="#383A48"/>
<path d="M293.787 222.322C294.455 222.322 294.997 221.779 294.997 221.11C294.997 220.44 294.455 219.897 293.787 219.897C293.118 219.897 292.576 220.44 292.576 221.11C292.576 221.779 293.118 222.322 293.787 222.322Z" fill="#383A48"/>
<path d="M293.787 228.289C294.455 228.289 294.997 227.746 294.997 227.076C294.997 226.406 294.455 225.863 293.787 225.863C293.118 225.863 292.576 226.406 292.576 227.076C292.576 227.746 293.118 228.289 293.787 228.289Z" fill="#383A48"/>
<path d="M293.787 234.281C294.455 234.281 294.997 233.738 294.997 233.068C294.997 232.398 294.455 231.855 293.787 231.855C293.118 231.855 292.576 232.398 292.576 233.068C292.576 233.738 293.118 234.281 293.787 234.281Z" fill="#383A48"/>
<path d="M293.787 240.272C294.455 240.272 294.997 239.729 294.997 239.059C294.997 238.39 294.455 237.847 293.787 237.847C293.118 237.847 292.576 238.39 292.576 239.059C292.576 239.729 293.118 240.272 293.787 240.272Z" fill="#383A48"/>
<path d="M293.787 246.239C294.455 246.239 294.997 245.696 294.997 245.026C294.997 244.356 294.455 243.813 293.787 243.813C293.118 243.813 292.576 244.356 292.576 245.026C292.576 245.696 293.118 246.239 293.787 246.239Z" fill="#383A48"/>
<path d="M293.787 252.232C294.455 252.232 294.997 251.689 294.997 251.019C294.997 250.349 294.455 249.806 293.787 249.806C293.118 249.806 292.576 250.349 292.576 251.019C292.576 251.689 293.118 252.232 293.787 252.232Z" fill="#383A48"/>
<path d="M293.787 258.223C294.455 258.223 294.997 257.68 294.997 257.01C294.997 256.34 294.455 255.797 293.787 255.797C293.118 255.797 292.576 256.34 292.576 257.01C292.576 257.68 293.118 258.223 293.787 258.223Z" fill="#383A48"/>
<path d="M293.787 264.19C294.455 264.19 294.997 263.647 294.997 262.977C294.997 262.307 294.455 261.764 293.787 261.764C293.118 261.764 292.576 262.307 292.576 262.977C292.576 263.647 293.118 264.19 293.787 264.19Z" fill="#383A48"/>
<path d="M293.787 270.181C294.455 270.181 294.997 269.638 294.997 268.968C294.997 268.298 294.455 267.755 293.787 267.755C293.118 267.755 292.576 268.298 292.576 268.968C292.576 269.638 293.118 270.181 293.787 270.181Z" fill="#383A48"/>
<path d="M293.787 276.173C294.455 276.173 294.997 275.63 294.997 274.96C294.997 274.29 294.455 273.747 293.787 273.747C293.118 273.747 292.576 274.29 292.576 274.96C292.576 275.63 293.118 276.173 293.787 276.173Z" fill="#383A48"/>
<path d="M293.787 282.14C294.455 282.14 294.997 281.597 294.997 280.928C294.997 280.258 294.455 279.715 293.787 279.715C293.118 279.715 292.576 280.258 292.576 280.928C292.576 281.597 293.118 282.14 293.787 282.14Z" fill="#383A48"/>
<path d="M293.787 288.131C294.455 288.131 294.997 287.588 294.997 286.919C294.997 286.249 294.455 285.706 293.787 285.706C293.118 285.706 292.576 286.249 292.576 286.919C292.576 287.588 293.118 288.131 293.787 288.131Z" fill="#383A48"/>
<path d="M287.805 210.338C288.474 210.338 289.016 209.795 289.016 209.125C289.016 208.456 288.474 207.913 287.805 207.913C287.136 207.913 286.594 208.456 286.594 209.125C286.594 209.795 287.136 210.338 287.805 210.338Z" fill="#383A48"/>
<path d="M287.805 216.33C288.474 216.33 289.016 215.787 289.016 215.117C289.016 214.447 288.474 213.904 287.805 213.904C287.136 213.904 286.594 214.447 286.594 215.117C286.594 215.787 287.136 216.33 287.805 216.33Z" fill="#383A48"/>
<path d="M287.805 222.322C288.474 222.322 289.016 221.779 289.016 221.11C289.016 220.44 288.474 219.897 287.805 219.897C287.136 219.897 286.594 220.44 286.594 221.11C286.594 221.779 287.136 222.322 287.805 222.322Z" fill="#383A48"/>
<path d="M287.805 228.289C288.474 228.289 289.016 227.746 289.016 227.076C289.016 226.406 288.474 225.863 287.805 225.863C287.136 225.863 286.594 226.406 286.594 227.076C286.594 227.746 287.136 228.289 287.805 228.289Z" fill="#383A48"/>
<path d="M287.805 234.281C288.474 234.281 289.016 233.738 289.016 233.068C289.016 232.398 288.474 231.855 287.805 231.855C287.136 231.855 286.594 232.398 286.594 233.068C286.594 233.738 287.136 234.281 287.805 234.281Z" fill="#383A48"/>
<path d="M287.805 240.272C288.474 240.272 289.016 239.729 289.016 239.059C289.016 238.39 288.474 237.847 287.805 237.847C287.136 237.847 286.594 238.39 286.594 239.059C286.594 239.729 287.136 240.272 287.805 240.272Z" fill="#383A48"/>
<path d="M287.805 246.239C288.474 246.239 289.016 245.696 289.016 245.026C289.016 244.356 288.474 243.813 287.805 243.813C287.136 243.813 286.594 244.356 286.594 245.026C286.594 245.696 287.136 246.239 287.805 246.239Z" fill="#383A48"/>
<path d="M287.805 252.232C288.474 252.232 289.016 251.689 289.016 251.019C289.016 250.349 288.474 249.806 287.805 249.806C287.136 249.806 286.594 250.349 286.594 251.019C286.594 251.689 287.136 252.232 287.805 252.232Z" fill="#383A48"/>
<path d="M287.805 258.223C288.474 258.223 289.016 257.68 289.016 257.01C289.016 256.34 288.474 255.797 287.805 255.797C287.136 255.797 286.594 256.34 286.594 257.01C286.594 257.68 287.136 258.223 287.805 258.223Z" fill="#383A48"/>
<path d="M287.805 264.19C288.474 264.19 289.016 263.647 289.016 262.977C289.016 262.307 288.474 261.764 287.805 261.764C287.136 261.764 286.594 262.307 286.594 262.977C286.594 263.647 287.136 264.19 287.805 264.19Z" fill="#383A48"/>
<path d="M287.805 270.181C288.474 270.181 289.016 269.638 289.016 268.968C289.016 268.298 288.474 267.755 287.805 267.755C287.136 267.755 286.594 268.298 286.594 268.968C286.594 269.638 287.136 270.181 287.805 270.181Z" fill="#383A48"/>
<path d="M287.805 276.173C288.474 276.173 289.016 275.63 289.016 274.96C289.016 274.29 288.474 273.747 287.805 273.747C287.136 273.747 286.594 274.29 286.594 274.96C286.594 275.63 287.136 276.173 287.805 276.173Z" fill="#383A48"/>
<path d="M287.805 282.14C288.474 282.14 289.016 281.597 289.016 280.928C289.016 280.258 288.474 279.715 287.805 279.715C287.136 279.715 286.594 280.258 286.594 280.928C286.594 281.597 287.136 282.14 287.805 282.14Z" fill="#383A48"/>
<path d="M287.805 288.131C288.474 288.131 289.016 287.588 289.016 286.919C289.016 286.249 288.474 285.706 287.805 285.706C287.136 285.706 286.594 286.249 286.594 286.919C286.594 287.588 287.136 288.131 287.805 288.131Z" fill="#383A48"/>
<path d="M281.849 210.338C282.517 210.338 283.059 209.795 283.059 209.125C283.059 208.456 282.517 207.913 281.849 207.913C281.18 207.913 280.638 208.456 280.638 209.125C280.638 209.795 281.18 210.338 281.849 210.338Z" fill="#383A48"/>
<path d="M281.849 216.33C282.517 216.33 283.059 215.787 283.059 215.117C283.059 214.447 282.517 213.904 281.849 213.904C281.18 213.904 280.638 214.447 280.638 215.117C280.638 215.787 281.18 216.33 281.849 216.33Z" fill="#383A48"/>
<path d="M281.849 222.322C282.517 222.322 283.059 221.779 283.059 221.11C283.059 220.44 282.517 219.897 281.849 219.897C281.18 219.897 280.638 220.44 280.638 221.11C280.638 221.779 281.18 222.322 281.849 222.322Z" fill="#383A48"/>
<path d="M281.849 228.289C282.517 228.289 283.059 227.746 283.059 227.076C283.059 226.406 282.517 225.863 281.849 225.863C281.18 225.863 280.638 226.406 280.638 227.076C280.638 227.746 281.18 228.289 281.849 228.289Z" fill="#383A48"/>
<path d="M281.849 234.281C282.517 234.281 283.059 233.738 283.059 233.068C283.059 232.398 282.517 231.855 281.849 231.855C281.18 231.855 280.638 232.398 280.638 233.068C280.638 233.738 281.18 234.281 281.849 234.281Z" fill="#383A48"/>
<path d="M281.849 240.272C282.517 240.272 283.059 239.729 283.059 239.059C283.059 238.39 282.517 237.847 281.849 237.847C281.18 237.847 280.638 238.39 280.638 239.059C280.638 239.729 281.18 240.272 281.849 240.272Z" fill="#383A48"/>
<path d="M281.849 246.239C282.517 246.239 283.059 245.696 283.059 245.026C283.059 244.356 282.517 243.813 281.849 243.813C281.18 243.813 280.638 244.356 280.638 245.026C280.638 245.696 281.18 246.239 281.849 246.239Z" fill="#383A48"/>
<path d="M281.849 252.232C282.517 252.232 283.059 251.689 283.059 251.019C283.059 250.349 282.517 249.806 281.849 249.806C281.18 249.806 280.638 250.349 280.638 251.019C280.638 251.689 281.18 252.232 281.849 252.232Z" fill="#383A48"/>
<path d="M281.849 258.223C282.517 258.223 283.059 257.68 283.059 257.01C283.059 256.34 282.517 255.797 281.849 255.797C281.18 255.797 280.638 256.34 280.638 257.01C280.638 257.68 281.18 258.223 281.849 258.223Z" fill="#383A48"/>
<path d="M281.849 264.19C282.517 264.19 283.059 263.647 283.059 262.977C283.059 262.307 282.517 261.764 281.849 261.764C281.18 261.764 280.638 262.307 280.638 262.977C280.638 263.647 281.18 264.19 281.849 264.19Z" fill="#383A48"/>
<path d="M281.849 270.181C282.517 270.181 283.059 269.638 283.059 268.968C283.059 268.298 282.517 267.755 281.849 267.755C281.18 267.755 280.638 268.298 280.638 268.968C280.638 269.638 281.18 270.181 281.849 270.181Z" fill="#383A48"/>
<path d="M281.849 276.173C282.517 276.173 283.059 275.63 283.059 274.96C283.059 274.29 282.517 273.747 281.849 273.747C281.18 273.747 280.638 274.29 280.638 274.96C280.638 275.63 281.18 276.173 281.849 276.173Z" fill="#383A48"/>
<path d="M281.849 282.14C282.517 282.14 283.059 281.597 283.059 280.928C283.059 280.258 282.517 279.715 281.849 279.715C281.18 279.715 280.638 280.258 280.638 280.928C280.638 281.597 281.18 282.14 281.849 282.14Z" fill="#383A48"/>
<path d="M281.849 288.131C282.517 288.131 283.059 287.588 283.059 286.919C283.059 286.249 282.517 285.706 281.849 285.706C281.18 285.706 280.638 286.249 280.638 286.919C280.638 287.588 281.18 288.131 281.849 288.131Z" fill="#383A48"/>
<path d="M275.866 210.338C276.535 210.338 277.077 209.795 277.077 209.125C277.077 208.456 276.535 207.913 275.866 207.913C275.197 207.913 274.655 208.456 274.655 209.125C274.655 209.795 275.197 210.338 275.866 210.338Z" fill="#383A48"/>
<path d="M275.866 216.33C276.535 216.33 277.077 215.787 277.077 215.117C277.077 214.447 276.535 213.904 275.866 213.904C275.197 213.904 274.655 214.447 274.655 215.117C274.655 215.787 275.197 216.33 275.866 216.33Z" fill="#383A48"/>
<path d="M275.866 222.322C276.535 222.322 277.077 221.779 277.077 221.11C277.077 220.44 276.535 219.897 275.866 219.897C275.197 219.897 274.655 220.44 274.655 221.11C274.655 221.779 275.197 222.322 275.866 222.322Z" fill="#383A48"/>
<path d="M275.866 228.289C276.535 228.289 277.077 227.746 277.077 227.076C277.077 226.406 276.535 225.863 275.866 225.863C275.197 225.863 274.655 226.406 274.655 227.076C274.655 227.746 275.197 228.289 275.866 228.289Z" fill="#383A48"/>
<path d="M275.866 234.281C276.535 234.281 277.077 233.738 277.077 233.068C277.077 232.398 276.535 231.855 275.866 231.855C275.197 231.855 274.655 232.398 274.655 233.068C274.655 233.738 275.197 234.281 275.866 234.281Z" fill="#383A48"/>
<path d="M275.866 240.272C276.535 240.272 277.077 239.729 277.077 239.059C277.077 238.39 276.535 237.847 275.866 237.847C275.197 237.847 274.655 238.39 274.655 239.059C274.655 239.729 275.197 240.272 275.866 240.272Z" fill="#383A48"/>
<path d="M275.866 246.239C276.535 246.239 277.077 245.696 277.077 245.026C277.077 244.356 276.535 243.813 275.866 243.813C275.197 243.813 274.655 244.356 274.655 245.026C274.655 245.696 275.197 246.239 275.866 246.239Z" fill="#383A48"/>
<path d="M275.866 252.232C276.535 252.232 277.077 251.689 277.077 251.019C277.077 250.349 276.535 249.806 275.866 249.806C275.197 249.806 274.655 250.349 274.655 251.019C274.655 251.689 275.197 252.232 275.866 252.232Z" fill="#383A48"/>
<path d="M275.866 258.223C276.535 258.223 277.077 257.68 277.077 257.01C277.077 256.34 276.535 255.797 275.866 255.797C275.197 255.797 274.655 256.34 274.655 257.01C274.655 257.68 275.197 258.223 275.866 258.223Z" fill="#383A48"/>
<path d="M275.866 264.19C276.535 264.19 277.077 263.647 277.077 262.977C277.077 262.307 276.535 261.764 275.866 261.764C275.197 261.764 274.655 262.307 274.655 262.977C274.655 263.647 275.197 264.19 275.866 264.19Z" fill="#383A48"/>
<path d="M275.866 270.181C276.535 270.181 277.077 269.638 277.077 268.968C277.077 268.298 276.535 267.755 275.866 267.755C275.197 267.755 274.655 268.298 274.655 268.968C274.655 269.638 275.197 270.181 275.866 270.181Z" fill="#383A48"/>
<path d="M275.866 276.173C276.535 276.173 277.077 275.63 277.077 274.96C277.077 274.29 276.535 273.747 275.866 273.747C275.197 273.747 274.655 274.29 274.655 274.96C274.655 275.63 275.197 276.173 275.866 276.173Z" fill="#383A48"/>
<path d="M275.866 282.14C276.535 282.14 277.077 281.597 277.077 280.928C277.077 280.258 276.535 279.715 275.866 279.715C275.197 279.715 274.655 280.258 274.655 280.928C274.655 281.597 275.197 282.14 275.866 282.14Z" fill="#383A48"/>
<path d="M275.866 288.131C276.535 288.131 277.077 287.588 277.077 286.919C277.077 286.249 276.535 285.706 275.866 285.706C275.197 285.706 274.655 286.249 274.655 286.919C274.655 287.588 275.197 288.131 275.866 288.131Z" fill="#383A48"/>
<path d="M269.885 210.338C270.554 210.338 271.096 209.795 271.096 209.125C271.096 208.456 270.554 207.913 269.885 207.913C269.216 207.913 268.674 208.456 268.674 209.125C268.674 209.795 269.216 210.338 269.885 210.338Z" fill="#383A48"/>
<path d="M269.885 216.33C270.554 216.33 271.096 215.787 271.096 215.117C271.096 214.447 270.554 213.904 269.885 213.904C269.216 213.904 268.674 214.447 268.674 215.117C268.674 215.787 269.216 216.33 269.885 216.33Z" fill="#383A48"/>
<path d="M269.885 222.322C270.554 222.322 271.096 221.779 271.096 221.11C271.096 220.44 270.554 219.897 269.885 219.897C269.216 219.897 268.674 220.44 268.674 221.11C268.674 221.779 269.216 222.322 269.885 222.322Z" fill="#383A48"/>
<path d="M269.885 228.289C270.554 228.289 271.096 227.746 271.096 227.076C271.096 226.406 270.554 225.863 269.885 225.863C269.216 225.863 268.674 226.406 268.674 227.076C268.674 227.746 269.216 228.289 269.885 228.289Z" fill="#383A48"/>
<path d="M269.885 234.281C270.554 234.281 271.096 233.738 271.096 233.068C271.096 232.398 270.554 231.855 269.885 231.855C269.216 231.855 268.674 232.398 268.674 233.068C268.674 233.738 269.216 234.281 269.885 234.281Z" fill="#383A48"/>
<path d="M269.885 240.272C270.554 240.272 271.096 239.729 271.096 239.059C271.096 238.39 270.554 237.847 269.885 237.847C269.216 237.847 268.674 238.39 268.674 239.059C268.674 239.729 269.216 240.272 269.885 240.272Z" fill="#383A48"/>
<path d="M269.885 246.239C270.554 246.239 271.096 245.696 271.096 245.026C271.096 244.356 270.554 243.813 269.885 243.813C269.216 243.813 268.674 244.356 268.674 245.026C268.674 245.696 269.216 246.239 269.885 246.239Z" fill="#383A48"/>
<path d="M269.885 252.232C270.554 252.232 271.096 251.689 271.096 251.019C271.096 250.349 270.554 249.806 269.885 249.806C269.216 249.806 268.674 250.349 268.674 251.019C268.674 251.689 269.216 252.232 269.885 252.232Z" fill="#383A48"/>
<path d="M269.885 258.223C270.554 258.223 271.096 257.68 271.096 257.01C271.096 256.34 270.554 255.797 269.885 255.797C269.216 255.797 268.674 256.34 268.674 257.01C268.674 257.68 269.216 258.223 269.885 258.223Z" fill="#383A48"/>
<path d="M269.885 264.19C270.554 264.19 271.096 263.647 271.096 262.977C271.096 262.307 270.554 261.764 269.885 261.764C269.216 261.764 268.674 262.307 268.674 262.977C268.674 263.647 269.216 264.19 269.885 264.19Z" fill="#383A48"/>
<path d="M269.885 270.181C270.554 270.181 271.096 269.638 271.096 268.968C271.096 268.298 270.554 267.755 269.885 267.755C269.216 267.755 268.674 268.298 268.674 268.968C268.674 269.638 269.216 270.181 269.885 270.181Z" fill="#383A48"/>
<path d="M269.885 276.173C270.554 276.173 271.096 275.63 271.096 274.96C271.096 274.29 270.554 273.747 269.885 273.747C269.216 273.747 268.674 274.29 268.674 274.96C268.674 275.63 269.216 276.173 269.885 276.173Z" fill="#383A48"/>
<path d="M269.885 282.14C270.554 282.14 271.096 281.597 271.096 280.928C271.096 280.258 270.554 279.715 269.885 279.715C269.216 279.715 268.674 280.258 268.674 280.928C268.674 281.597 269.216 282.14 269.885 282.14Z" fill="#383A48"/>
<path d="M269.885 288.131C270.554 288.131 271.096 287.588 271.096 286.919C271.096 286.249 270.554 285.706 269.885 285.706C269.216 285.706 268.674 286.249 268.674 286.919C268.674 287.588 269.216 288.131 269.885 288.131Z" fill="#383A48"/>
<path d="M263.927 210.338C264.595 210.338 265.137 209.795 265.137 209.125C265.137 208.456 264.595 207.913 263.927 207.913C263.258 207.913 262.716 208.456 262.716 209.125C262.716 209.795 263.258 210.338 263.927 210.338Z" fill="#383A48"/>
<path d="M263.927 216.33C264.595 216.33 265.137 215.787 265.137 215.117C265.137 214.447 264.595 213.904 263.927 213.904C263.258 213.904 262.716 214.447 262.716 215.117C262.716 215.787 263.258 216.33 263.927 216.33Z" fill="#383A48"/>
<path d="M263.927 222.322C264.595 222.322 265.137 221.779 265.137 221.11C265.137 220.44 264.595 219.897 263.927 219.897C263.258 219.897 262.716 220.44 262.716 221.11C262.716 221.779 263.258 222.322 263.927 222.322Z" fill="#383A48"/>
<path d="M263.927 228.289C264.595 228.289 265.137 227.746 265.137 227.076C265.137 226.406 264.595 225.863 263.927 225.863C263.258 225.863 262.716 226.406 262.716 227.076C262.716 227.746 263.258 228.289 263.927 228.289Z" fill="#383A48"/>
<path d="M263.927 234.281C264.595 234.281 265.137 233.738 265.137 233.068C265.137 232.398 264.595 231.855 263.927 231.855C263.258 231.855 262.716 232.398 262.716 233.068C262.716 233.738 263.258 234.281 263.927 234.281Z" fill="#383A48"/>
<path d="M263.927 240.272C264.595 240.272 265.137 239.729 265.137 239.059C265.137 238.39 264.595 237.847 263.927 237.847C263.258 237.847 262.716 238.39 262.716 239.059C262.716 239.729 263.258 240.272 263.927 240.272Z" fill="#383A48"/>
<path d="M263.927 246.239C264.595 246.239 265.137 245.696 265.137 245.026C265.137 244.356 264.595 243.813 263.927 243.813C263.258 243.813 262.716 244.356 262.716 245.026C262.716 245.696 263.258 246.239 263.927 246.239Z" fill="#383A48"/>
<path d="M263.927 252.232C264.595 252.232 265.137 251.689 265.137 251.019C265.137 250.349 264.595 249.806 263.927 249.806C263.258 249.806 262.716 250.349 262.716 251.019C262.716 251.689 263.258 252.232 263.927 252.232Z" fill="#383A48"/>
<path d="M263.927 258.223C264.595 258.223 265.137 257.68 265.137 257.01C265.137 256.34 264.595 255.797 263.927 255.797C263.258 255.797 262.716 256.34 262.716 257.01C262.716 257.68 263.258 258.223 263.927 258.223Z" fill="#383A48"/>
<path d="M263.927 264.19C264.595 264.19 265.137 263.647 265.137 262.977C265.137 262.307 264.595 261.764 263.927 261.764C263.258 261.764 262.716 262.307 262.716 262.977C262.716 263.647 263.258 264.19 263.927 264.19Z" fill="#383A48"/>
<path d="M263.927 270.181C264.595 270.181 265.137 269.638 265.137 268.968C265.137 268.298 264.595 267.755 263.927 267.755C263.258 267.755 262.716 268.298 262.716 268.968C262.716 269.638 263.258 270.181 263.927 270.181Z" fill="#383A48"/>
<path d="M263.927 276.173C264.595 276.173 265.137 275.63 265.137 274.96C265.137 274.29 264.595 273.747 263.927 273.747C263.258 273.747 262.716 274.29 262.716 274.96C262.716 275.63 263.258 276.173 263.927 276.173Z" fill="#383A48"/>
<path d="M263.927 282.14C264.595 282.14 265.137 281.597 265.137 280.928C265.137 280.258 264.595 279.715 263.927 279.715C263.258 279.715 262.716 280.258 262.716 280.928C262.716 281.597 263.258 282.14 263.927 282.14Z" fill="#383A48"/>
<path d="M263.927 288.131C264.595 288.131 265.137 287.588 265.137 286.919C265.137 286.249 264.595 285.706 263.927 285.706C263.258 285.706 262.716 286.249 262.716 286.919C262.716 287.588 263.258 288.131 263.927 288.131Z" fill="#383A48"/>
<path d="M257.945 210.338C258.614 210.338 259.156 209.795 259.156 209.125C259.156 208.456 258.614 207.913 257.945 207.913C257.276 207.913 256.734 208.456 256.734 209.125C256.734 209.795 257.276 210.338 257.945 210.338Z" fill="#383A48"/>
<path d="M257.945 216.33C258.614 216.33 259.156 215.787 259.156 215.117C259.156 214.447 258.614 213.904 257.945 213.904C257.276 213.904 256.734 214.447 256.734 215.117C256.734 215.787 257.276 216.33 257.945 216.33Z" fill="#383A48"/>
<path d="M257.945 222.322C258.614 222.322 259.156 221.779 259.156 221.11C259.156 220.44 258.614 219.897 257.945 219.897C257.276 219.897 256.734 220.44 256.734 221.11C256.734 221.779 257.276 222.322 257.945 222.322Z" fill="#383A48"/>
<path d="M257.945 228.289C258.614 228.289 259.156 227.746 259.156 227.076C259.156 226.406 258.614 225.863 257.945 225.863C257.276 225.863 256.734 226.406 256.734 227.076C256.734 227.746 257.276 228.289 257.945 228.289Z" fill="#383A48"/>
<path d="M257.945 234.281C258.614 234.281 259.156 233.738 259.156 233.068C259.156 232.398 258.614 231.855 257.945 231.855C257.276 231.855 256.734 232.398 256.734 233.068C256.734 233.738 257.276 234.281 257.945 234.281Z" fill="#383A48"/>
<path d="M257.945 240.272C258.614 240.272 259.156 239.729 259.156 239.059C259.156 238.39 258.614 237.847 257.945 237.847C257.276 237.847 256.734 238.39 256.734 239.059C256.734 239.729 257.276 240.272 257.945 240.272Z" fill="#383A48"/>
<path d="M257.945 246.239C258.614 246.239 259.156 245.696 259.156 245.026C259.156 244.356 258.614 243.813 257.945 243.813C257.276 243.813 256.734 244.356 256.734 245.026C256.734 245.696 257.276 246.239 257.945 246.239Z" fill="#383A48"/>
<path d="M257.945 252.232C258.614 252.232 259.156 251.689 259.156 251.019C259.156 250.349 258.614 249.806 257.945 249.806C257.276 249.806 256.734 250.349 256.734 251.019C256.734 251.689 257.276 252.232 257.945 252.232Z" fill="#383A48"/>
<path d="M257.945 258.223C258.614 258.223 259.156 257.68 259.156 257.01C259.156 256.34 258.614 255.797 257.945 255.797C257.276 255.797 256.734 256.34 256.734 257.01C256.734 257.68 257.276 258.223 257.945 258.223Z" fill="#383A48"/>
<path d="M257.945 264.19C258.614 264.19 259.156 263.647 259.156 262.977C259.156 262.307 258.614 261.764 257.945 261.764C257.276 261.764 256.734 262.307 256.734 262.977C256.734 263.647 257.276 264.19 257.945 264.19Z" fill="#383A48"/>
<path d="M257.945 270.181C258.614 270.181 259.156 269.638 259.156 268.968C259.156 268.298 258.614 267.755 257.945 267.755C257.276 267.755 256.734 268.298 256.734 268.968C256.734 269.638 257.276 270.181 257.945 270.181Z" fill="#383A48"/>
<path d="M257.945 276.173C258.614 276.173 259.156 275.63 259.156 274.96C259.156 274.29 258.614 273.747 257.945 273.747C257.276 273.747 256.734 274.29 256.734 274.96C256.734 275.63 257.276 276.173 257.945 276.173Z" fill="#383A48"/>
<path d="M257.945 282.14C258.614 282.14 259.156 281.597 259.156 280.928C259.156 280.258 258.614 279.715 257.945 279.715C257.276 279.715 256.734 280.258 256.734 280.928C256.734 281.597 257.276 282.14 257.945 282.14Z" fill="#383A48"/>
<path d="M257.945 288.131C258.614 288.131 259.156 287.588 259.156 286.919C259.156 286.249 258.614 285.706 257.945 285.706C257.276 285.706 256.734 286.249 256.734 286.919C256.734 287.588 257.276 288.131 257.945 288.131Z" fill="#383A48"/>
<path d="M251.964 210.338C252.633 210.338 253.175 209.795 253.175 209.125C253.175 208.456 252.633 207.913 251.964 207.913C251.295 207.913 250.753 208.456 250.753 209.125C250.753 209.795 251.295 210.338 251.964 210.338Z" fill="#383A48"/>
<path d="M251.964 216.33C252.633 216.33 253.175 215.787 253.175 215.117C253.175 214.447 252.633 213.904 251.964 213.904C251.295 213.904 250.753 214.447 250.753 215.117C250.753 215.787 251.295 216.33 251.964 216.33Z" fill="#383A48"/>
<path d="M251.964 222.322C252.633 222.322 253.175 221.779 253.175 221.11C253.175 220.44 252.633 219.897 251.964 219.897C251.295 219.897 250.753 220.44 250.753 221.11C250.753 221.779 251.295 222.322 251.964 222.322Z" fill="#383A48"/>
<path d="M251.964 228.289C252.633 228.289 253.175 227.746 253.175 227.076C253.175 226.406 252.633 225.863 251.964 225.863C251.295 225.863 250.753 226.406 250.753 227.076C250.753 227.746 251.295 228.289 251.964 228.289Z" fill="#383A48"/>
<path d="M251.964 234.281C252.633 234.281 253.175 233.738 253.175 233.068C253.175 232.398 252.633 231.855 251.964 231.855C251.295 231.855 250.753 232.398 250.753 233.068C250.753 233.738 251.295 234.281 251.964 234.281Z" fill="#383A48"/>
<path d="M251.964 240.272C252.633 240.272 253.175 239.729 253.175 239.059C253.175 238.39 252.633 237.847 251.964 237.847C251.295 237.847 250.753 238.39 250.753 239.059C250.753 239.729 251.295 240.272 251.964 240.272Z" fill="#383A48"/>
<path d="M251.964 246.239C252.633 246.239 253.175 245.696 253.175 245.026C253.175 244.356 252.633 243.813 251.964 243.813C251.295 243.813 250.753 244.356 250.753 245.026C250.753 245.696 251.295 246.239 251.964 246.239Z" fill="#383A48"/>
<path d="M251.964 252.232C252.633 252.232 253.175 251.689 253.175 251.019C253.175 250.349 252.633 249.806 251.964 249.806C251.295 249.806 250.753 250.349 250.753 251.019C250.753 251.689 251.295 252.232 251.964 252.232Z" fill="#383A48"/>
<path d="M251.964 258.223C252.633 258.223 253.175 257.68 253.175 257.01C253.175 256.34 252.633 255.797 251.964 255.797C251.295 255.797 250.753 256.34 250.753 257.01C250.753 257.68 251.295 258.223 251.964 258.223Z" fill="#383A48"/>
<path d="M251.964 264.19C252.633 264.19 253.175 263.647 253.175 262.977C253.175 262.307 252.633 261.764 251.964 261.764C251.295 261.764 250.753 262.307 250.753 262.977C250.753 263.647 251.295 264.19 251.964 264.19Z" fill="#383A48"/>
<path d="M251.964 270.181C252.633 270.181 253.175 269.638 253.175 268.968C253.175 268.298 252.633 267.755 251.964 267.755C251.295 267.755 250.753 268.298 250.753 268.968C250.753 269.638 251.295 270.181 251.964 270.181Z" fill="#383A48"/>
<path d="M251.964 276.173C252.633 276.173 253.175 275.63 253.175 274.96C253.175 274.29 252.633 273.747 251.964 273.747C251.295 273.747 250.753 274.29 250.753 274.96C250.753 275.63 251.295 276.173 251.964 276.173Z" fill="#383A48"/>
<path d="M251.964 282.14C252.633 282.14 253.175 281.597 253.175 280.928C253.175 280.258 252.633 279.715 251.964 279.715C251.295 279.715 250.753 280.258 250.753 280.928C250.753 281.597 251.295 282.14 251.964 282.14Z" fill="#383A48"/>
<path d="M251.964 288.131C252.633 288.131 253.175 287.588 253.175 286.919C253.175 286.249 252.633 285.706 251.964 285.706C251.295 285.706 250.753 286.249 250.753 286.919C250.753 287.588 251.295 288.131 251.964 288.131Z" fill="#383A48"/>
<path d="M466.721 163.231C463.815 163.231 461.442 160.854 461.442 157.943C461.442 155.032 463.815 152.655 466.721 152.655C469.627 152.655 472.001 155.032 472.001 157.943C472.001 160.854 469.627 163.231 466.721 163.231ZM466.721 155.105C465.147 155.105 463.864 156.391 463.864 157.967C463.864 159.544 465.147 160.83 466.721 160.83C468.295 160.83 469.579 159.544 469.579 157.967C469.579 156.391 468.295 155.105 466.721 155.105Z" fill="#383A48"/>
<path d="M241.623 287.526H239.444C236.344 287.453 230.241 287.065 223.654 285.246C218.157 283.717 213.386 281.534 209.487 278.72C204.643 275.252 201.132 270.788 199.001 265.5C196.749 259.873 197.088 252.377 197.427 244.421C197.911 233.506 198.395 222.226 191.808 215.264C187.74 210.947 181.443 208.812 172.628 208.739C163.74 208.666 148.459 208.86 142.187 209.079C141.533 209.103 141.025 209.637 141.025 210.292V288.763C141.025 289.442 141.557 289.976 142.235 289.976H239.153C239.686 290 240.122 290 240.509 290C241.211 290 241.623 289.976 241.696 289.976C242.35 289.951 242.858 289.394 242.858 288.739C242.834 288.059 242.277 287.526 241.623 287.526Z" fill="#F0F2F7"/>
<path d="M517.99 150.813C493.482 150.813 477.232 165.804 461.515 180.309C453.814 187.417 445.847 194.767 437.08 200.152C427.321 206.143 417.488 209.054 407.002 209.054C406.324 209.054 405.792 209.588 405.792 210.267V288.738C405.792 289.417 406.324 289.951 407.002 289.951H517.99C518.668 289.951 519.201 289.417 519.201 288.738V152.026C519.201 151.371 518.644 150.813 517.99 150.813Z" fill="#F0F2F7"/>
<path d="M405.429 211.213C404.751 211.213 404.218 210.679 404.218 210C404.218 209.321 404.751 208.787 405.429 208.787C415.939 208.787 425.36 206.046 435.071 200.152C443.692 194.912 451.514 187.732 459.094 180.77C475.126 166.046 491.715 150.813 517.991 150.813C518.669 150.813 519.202 151.347 519.202 152.026C519.202 152.705 518.669 153.239 517.991 153.239C506.657 153.239 496.147 156.222 485.903 162.359C476.725 167.866 468.588 175.337 460.741 182.541C453.089 189.576 445.17 196.853 436.33 202.213C426.377 208.278 416.254 211.213 405.429 211.213Z" fill="#383A48"/>
<path d="M142.235 269.186C141.557 269.186 141.025 268.652 141.025 267.973C141.025 267.294 141.557 266.76 142.235 266.76C153.569 266.76 163.692 263.777 173.234 257.664C181.782 252.158 189.047 244.711 196.07 237.506C202.948 230.472 210.044 223.195 218.278 217.81C227.577 211.745 237.361 208.786 248.21 208.786C248.888 208.786 249.421 209.32 249.421 209.999C249.421 210.678 248.888 211.212 248.21 211.212C225.107 211.212 211.836 224.796 197.814 239.204C183.429 253.953 168.56 269.186 142.235 269.186Z" fill="#383A48"/>
<path d="M403.515 210C403.515 167.575 369.175 133.179 326.819 133.179C284.463 133.179 250.123 167.575 250.123 210C250.123 252.426 284.463 288.738 326.819 288.738C369.175 288.738 403.515 252.426 403.515 210Z" fill="#FFD30D"/>
<path d="M326.82 289.953C316.334 289.953 306.114 287.794 296.476 283.5C287.225 279.401 278.894 273.555 271.726 266.108C264.582 258.71 258.963 250.147 255.04 240.662C250.972 230.863 248.913 220.529 248.913 210.002C248.913 189.165 257.026 169.565 271.726 154.817C286.45 140.069 305.993 131.967 326.82 131.967C347.647 131.967 367.19 140.093 381.914 154.817C396.638 169.565 404.727 189.141 404.727 210.002C404.727 220.553 402.669 230.863 398.6 240.662C394.677 250.147 389.058 258.71 381.914 266.108C374.746 273.555 366.415 279.401 357.164 283.5C347.526 287.794 337.306 289.953 326.82 289.953ZM326.82 134.393C306.647 134.393 287.709 142.252 273.445 156.539C259.181 170.827 251.335 189.796 251.335 210.002C251.335 220.214 253.321 230.232 257.268 239.741C261.094 248.958 266.519 257.254 273.445 264.434C280.396 271.639 288.484 277.315 297.445 281.293C306.768 285.441 316.649 287.527 326.796 287.527C336.943 287.527 346.824 285.441 356.147 281.293C365.108 277.315 373.196 271.639 380.146 264.434C387.073 257.254 392.521 248.958 396.324 239.741C400.271 230.232 402.257 220.238 402.257 210.002C402.257 189.796 394.41 170.827 380.146 156.539C365.883 142.252 346.993 134.393 326.82 134.393Z" fill="#383A48"/>
<path d="M326.821 270.861C360.378 270.861 387.582 243.613 387.582 210C387.582 176.388 360.378 149.14 326.821 149.14C293.264 149.14 266.06 176.388 266.06 210C266.06 243.613 293.264 270.861 326.821 270.861Z" fill="#FFD30D"/>
<path d="M326.821 272.437C292.457 272.437 264.486 244.42 264.486 210C264.486 175.579 292.457 147.562 326.821 147.562C361.186 147.562 389.157 175.579 389.157 210C389.157 244.42 361.186 272.437 326.821 272.437ZM326.821 150.716C294.177 150.716 267.634 177.302 267.634 210C267.634 242.698 294.177 269.284 326.821 269.284C359.466 269.284 386.008 242.698 386.008 210C386.008 177.302 359.466 150.716 326.821 150.716Z" fill="#F3F6E6"/>
<path d="M326.821 289.952C326.142 289.952 325.61 289.418 325.61 288.739V259.922C325.61 257.254 327.644 254.488 331.083 254.488C332.802 254.488 334.401 255.313 335.418 256.744C335.418 256.769 335.442 256.769 335.442 256.793C336.871 258.927 338.784 260.116 340.842 260.116C344.959 260.116 348.301 255.313 348.301 249.419C348.301 243.524 344.959 238.721 340.842 238.721C339.825 238.721 338.857 239.012 337.912 239.57C336.992 240.128 336.144 240.977 335.442 242.02C335.442 242.045 335.418 242.045 335.418 242.069C334.013 244.009 331.64 244.786 329.363 244.034C327.087 243.282 325.61 241.268 325.61 238.867V210.001C325.61 209.322 326.142 208.788 326.821 208.788H355.615C358.012 208.788 360.022 210.268 360.773 212.548C361.524 214.828 360.749 217.205 358.812 218.612C358.787 218.612 358.787 218.637 358.763 218.637C357.698 219.34 356.874 220.189 356.317 221.111C355.736 222.033 355.47 223.027 355.47 224.046C355.47 228.17 360.265 231.517 366.149 231.517C372.034 231.517 376.829 228.17 376.829 224.046C376.829 222.008 375.643 220.092 373.511 218.637C373.487 218.637 373.487 218.612 373.463 218.612C372.034 217.569 371.211 215.993 371.211 214.27C371.211 211.578 373.245 208.788 376.635 208.788H403.492C404.17 208.788 404.703 209.322 404.703 210.001C404.703 210.68 404.17 211.214 403.492 211.214H376.635C374.747 211.214 373.633 212.766 373.633 214.27C373.633 215.216 374.068 216.065 374.868 216.648C377.653 218.515 379.227 221.208 379.227 224.046C379.227 229.504 373.342 233.943 366.125 233.943C358.908 233.943 353.024 229.504 353.024 224.046C353.024 222.591 353.435 221.159 354.234 219.849C354.985 218.637 356.051 217.545 357.383 216.648C358.666 215.702 358.787 214.295 358.448 213.3C358.133 212.306 357.213 211.214 355.591 211.214H328.031V238.843C328.031 240.444 329.097 241.365 330.114 241.705C331.107 242.02 332.512 241.923 333.456 240.638C334.352 239.304 335.442 238.236 336.653 237.484C337.96 236.684 339.365 236.271 340.842 236.271C346.291 236.271 350.723 242.166 350.723 249.394C350.723 256.623 346.291 262.517 340.842 262.517C338.009 262.517 335.321 260.916 333.456 258.151C332.875 257.351 332.027 256.914 331.083 256.914C329.581 256.914 328.031 258.03 328.031 259.922V288.763C328.031 289.418 327.499 289.952 326.821 289.952Z" fill="#383A48"/>
<path d="M312.798 159.934C313.815 159.934 314.784 160.225 315.729 160.783C316.649 161.341 317.496 162.19 318.199 163.233C318.199 163.257 318.223 163.257 318.223 163.282C319.628 165.222 322.001 165.998 324.277 165.246C326.554 164.494 328.031 162.481 328.031 160.08V146.059C327.232 146.205 326.408 146.277 325.609 146.277V160.08C325.609 161.681 324.544 162.602 323.527 162.942C322.534 163.257 321.129 163.16 320.185 161.875C319.288 160.565 318.199 159.473 316.988 158.721C315.68 157.921 314.276 157.508 312.798 157.508C307.349 157.508 302.893 163.403 302.893 170.631C302.893 177.86 307.325 183.754 312.798 183.754C315.632 183.754 318.32 182.153 320.185 179.388C320.766 178.588 321.613 178.151 322.558 178.151C324.059 178.151 325.609 179.267 325.609 181.159V208.788H298.026C294.635 208.788 292.601 211.577 292.601 214.27C292.601 215.992 293.424 217.593 294.853 218.612C294.877 218.612 294.877 218.636 294.902 218.636C297.033 220.067 298.219 221.983 298.219 224.045C298.219 228.169 293.424 231.516 287.54 231.516C281.655 231.516 276.86 228.169 276.86 224.045C276.86 223.026 277.15 222.056 277.707 221.11C278.264 220.188 279.112 219.339 280.153 218.636C280.178 218.636 280.178 218.612 280.202 218.612C282.139 217.205 282.914 214.828 282.163 212.547C281.413 210.267 279.403 208.788 277.005 208.788H250.124C249.446 208.788 248.913 209.321 248.913 210C248.913 210.68 249.446 211.213 250.124 211.213H277.005C278.604 211.213 279.524 212.281 279.863 213.299C280.178 214.294 280.081 215.701 278.797 216.647C277.465 217.544 276.4 218.636 275.649 219.849C274.85 221.159 274.438 222.565 274.438 224.045C274.438 229.503 280.323 233.942 287.54 233.942C294.756 233.942 300.641 229.503 300.641 224.045C300.641 221.207 299.043 218.515 296.282 216.647C295.483 216.065 295.047 215.216 295.047 214.27C295.047 212.766 296.161 211.213 298.05 211.213H326.844C327.522 211.213 328.055 210.68 328.055 210V181.159C328.055 177.763 325.27 175.725 322.582 175.725C320.863 175.725 319.264 176.55 318.247 177.981C318.247 178.005 318.223 178.005 318.223 178.03C316.794 180.164 314.881 181.353 312.822 181.353C308.706 181.353 305.339 176.55 305.339 170.656C305.339 164.761 308.681 159.934 312.798 159.934Z" fill="#383A48"/>
<path d="M326.82 133.179C347.719 133.179 367.384 140.043 382.156 154.84C396.929 169.637 403.516 189.333 403.516 210.267" fill="#9FBFFF"/>
<path d="M403.517 211.506C402.839 211.506 402.306 210.972 402.306 210.293C402.306 188.34 395.041 169.468 381.309 155.715C367.384 141.767 348.543 134.393 326.821 134.393C326.142 134.393 325.61 133.859 325.61 133.18C325.61 132.501 326.142 131.967 326.821 131.967C349.197 131.967 368.644 139.584 383.029 153.992C397.22 168.207 404.727 187.685 404.727 210.268C404.727 210.948 404.17 211.506 403.517 211.506Z" fill="#383A48"/>
<path d="M403.516 210.291H376.659C374.068 210.291 372.445 212.402 372.445 214.561C372.445 215.798 372.978 217.059 374.189 217.932C376.562 219.533 378.04 221.813 378.04 224.336C378.04 229.139 372.712 233.02 366.149 233.02C359.586 233.02 354.258 229.139 354.258 224.336C354.258 223.075 354.622 221.862 355.3 220.77C355.978 219.679 356.922 218.709 358.109 217.932C361.402 215.531 359.707 210.291 355.639 210.291H326.82V181.45C326.82 178.854 324.713 177.229 322.558 177.229C321.323 177.229 320.063 177.763 319.192 178.976C317.593 181.353 315.317 182.833 312.798 182.833C308.003 182.833 304.104 177.496 304.104 170.922C304.104 164.349 308.003 159.012 312.798 159.012C314.058 159.012 315.268 159.376 316.358 160.055C317.448 160.734 318.417 161.681 319.192 162.869C321.589 166.168 326.82 164.47 326.82 160.395V133.179" fill="#9FBFFF"/>
<path d="M366.125 234.234C358.908 234.234 353.023 229.795 353.023 224.338C353.023 222.882 353.435 221.475 354.234 220.141C354.985 218.928 356.051 217.837 357.383 216.939C358.666 215.993 358.787 214.586 358.448 213.592C358.133 212.597 357.189 211.506 355.591 211.506H326.82C326.142 211.506 325.61 210.972 325.61 210.293V181.451C325.61 179.559 324.06 178.443 322.558 178.443C321.614 178.443 320.766 178.88 320.185 179.68C318.32 182.47 315.632 184.047 312.799 184.047C307.35 184.047 302.894 178.152 302.894 170.924C302.894 163.695 307.326 157.801 312.799 157.801C314.252 157.801 315.68 158.213 316.988 159.014C318.223 159.766 319.289 160.833 320.185 162.167C321.129 163.453 322.534 163.574 323.527 163.234C324.52 162.919 325.61 161.973 325.61 160.372V133.18C325.61 132.501 326.142 131.967 326.82 131.967C327.498 131.967 328.031 132.501 328.031 133.18V160.372C328.031 162.773 326.554 164.787 324.278 165.539C322.001 166.291 319.628 165.514 318.223 163.574C318.223 163.55 318.199 163.55 318.199 163.525C317.497 162.482 316.649 161.633 315.729 161.075C314.809 160.517 313.816 160.226 312.799 160.226C308.682 160.226 305.315 165.029 305.315 170.924C305.315 176.818 308.657 181.621 312.799 181.621C314.833 181.621 316.746 180.432 318.199 178.298C318.199 178.274 318.223 178.274 318.223 178.249C319.265 176.818 320.839 175.993 322.558 175.993C325.246 175.993 328.031 178.031 328.031 181.427V209.056H355.615C358.012 209.056 360.022 210.535 360.773 212.815C361.524 215.096 360.749 217.473 358.811 218.88C358.787 218.88 358.787 218.904 358.763 218.904C357.697 219.607 356.874 220.456 356.317 221.378C355.736 222.3 355.469 223.294 355.469 224.313C355.469 228.437 360.264 231.784 366.149 231.784C372.034 231.784 376.829 228.437 376.829 224.313C376.829 222.276 375.642 220.359 373.511 218.904C373.487 218.904 373.487 218.88 373.463 218.88C372.034 217.837 371.211 216.26 371.211 214.538C371.211 211.845 373.245 209.056 376.635 209.056H403.492C404.17 209.056 404.703 209.589 404.703 210.268C404.703 210.948 404.17 211.481 403.492 211.481H376.635C374.746 211.481 373.632 213.034 373.632 214.538C373.632 215.484 374.068 216.333 374.867 216.915C377.628 218.783 379.227 221.475 379.227 224.313C379.227 229.795 373.342 234.234 366.125 234.234Z" fill="#383A48"/>
<path d="M218.931 131.239V158.164C218.931 160.759 221.038 162.384 223.193 162.384C224.428 162.384 225.688 161.851 226.56 160.638C228.158 158.261 230.41 156.781 232.953 156.781C237.748 156.781 241.647 162.118 241.647 168.691C241.647 175.265 237.748 180.601 232.953 180.601C231.694 180.601 230.483 180.238 229.393 179.558C228.303 178.879 227.335 177.933 226.56 176.745C224.162 173.446 218.931 175.144 218.931 179.219V208.06H190.137C187.546 208.06 185.923 210.171 185.923 212.33C185.923 213.567 186.456 214.828 187.667 215.701C190.04 217.278 191.517 219.582 191.517 222.105C191.517 226.908 186.189 230.813 179.627 230.813C173.064 230.813 167.736 226.908 167.736 222.105C167.736 220.844 168.099 219.631 168.777 218.539C169.455 217.448 170.4 216.477 171.586 215.701C174.88 213.3 173.185 208.06 169.116 208.06H142.235C142.235 165.635 176.575 131.239 218.931 131.239Z" fill="#FFD30D"/>
<path d="M179.627 232C172.41 232 166.525 227.561 166.525 222.079C166.525 220.624 166.937 219.193 167.736 217.883C168.487 216.646 169.552 215.578 170.884 214.681C172.168 213.735 172.289 212.328 171.95 211.334C171.635 210.339 170.715 209.247 169.092 209.247H142.211C141.533 209.247 141 208.714 141 208.035C141 187.198 149.113 167.598 163.813 152.85C178.537 138.102 198.08 130 218.907 130C219.585 130 220.118 130.534 220.118 131.213V158.138C220.118 160.03 221.668 161.146 223.169 161.146C224.114 161.146 224.961 160.709 225.542 159.909C227.407 157.119 230.095 155.543 232.929 155.543C238.378 155.543 242.834 161.437 242.834 168.666C242.834 175.894 238.402 181.789 232.929 181.789C231.476 181.789 230.047 181.376 228.739 180.576C227.528 179.824 226.438 178.756 225.542 177.422C224.598 176.137 223.193 176.015 222.2 176.355C221.208 176.67 220.118 177.616 220.118 179.217V208.059C220.118 208.738 219.585 209.272 218.907 209.272H190.137C188.248 209.272 187.134 210.824 187.134 212.328C187.134 213.274 187.57 214.123 188.369 214.705C191.154 216.573 192.728 219.266 192.728 222.104C192.728 227.561 186.843 232 179.627 232ZM143.446 206.846H169.092C171.49 206.846 173.5 208.326 174.25 210.606C175.001 212.886 174.226 215.263 172.289 216.67C172.264 216.67 172.264 216.694 172.24 216.694C171.199 217.398 170.351 218.247 169.794 219.169C169.237 220.09 168.947 221.085 168.947 222.079C168.947 226.203 173.742 229.575 179.627 229.575C185.511 229.575 190.306 226.227 190.306 222.079C190.306 220.042 189.12 218.125 186.989 216.67C186.964 216.67 186.964 216.646 186.94 216.646C185.511 215.603 184.688 214.026 184.688 212.304C184.688 209.611 186.722 206.822 190.113 206.822H217.696V179.217C217.696 176.816 219.173 174.803 221.45 174.051C223.726 173.299 226.099 174.075 227.504 176.015C227.504 176.04 227.528 176.04 227.528 176.064C228.231 177.131 229.078 177.956 229.998 178.514C230.919 179.096 231.912 179.363 232.929 179.363C237.046 179.363 240.412 174.56 240.412 168.666C240.412 162.771 237.07 157.968 232.929 157.968C230.894 157.968 228.981 159.157 227.528 161.291C227.528 161.316 227.504 161.316 227.504 161.34C226.463 162.771 224.889 163.572 223.169 163.572C220.481 163.572 217.696 161.534 217.696 158.138V132.45C197.983 132.765 179.505 140.6 165.532 154.572C151.559 168.544 143.761 187.101 143.446 206.846Z" fill="#383A48"/>
<path d="M223.192 162.384C224.428 162.384 225.687 161.851 226.559 160.638C228.157 158.261 230.409 156.781 232.952 156.781C237.747 156.781 241.646 162.117 241.646 168.691C241.646 175.265 237.747 180.601 232.952 180.601C231.693 180.601 230.482 180.237 229.392 179.558C228.302 178.879 227.334 177.933 226.559 176.744C224.161 173.445 218.93 175.143 218.93 179.219V208.06H190.136C187.545 208.06 185.922 210.17 185.922 212.329C185.922 213.566 186.455 214.828 187.666 215.701C190.039 217.278 191.516 219.582 191.516 222.105C191.516 226.908 186.189 230.813 179.626 230.813C173.063 230.813 167.735 226.908 167.735 222.105C167.735 220.844 168.098 219.631 168.776 218.539C169.454 217.448 170.399 216.477 171.585 215.701C174.879 213.3 173.184 208.06 169.115 208.06H158.169C158.169 174.44 185.365 147.199 218.93 147.199V158.164C218.93 160.759 221.037 162.384 223.192 162.384Z" fill="#FFD30D"/>
<path d="M156.596 208.06H159.745C159.745 175.362 186.287 148.776 218.932 148.776V145.623C184.567 145.623 156.596 173.639 156.596 208.06Z" fill="#F3F6E6"/>
<path d="M218.932 208.06V179.219C218.932 175.119 224.163 173.421 226.56 176.744C227.359 177.933 228.328 178.903 229.393 179.558C230.459 180.213 231.67 180.601 232.953 180.601C237.748 180.601 241.647 175.265 241.647 168.691C241.647 162.117 237.748 156.781 232.953 156.781C230.411 156.781 228.134 158.261 226.56 160.638C225.688 161.851 224.429 162.384 223.194 162.384C221.038 162.384 218.932 160.759 218.932 158.164V148.776V147.199V145.623V131.238" fill="#F6E049"/>
<path d="M218.932 209.272C218.254 209.272 217.721 208.738 217.721 208.059V179.217C217.721 176.816 219.198 174.803 221.474 174.051C223.751 173.299 226.124 174.075 227.529 176.015C227.529 176.04 227.553 176.04 227.553 176.064C228.255 177.131 229.103 177.956 230.023 178.514C230.943 179.096 231.936 179.363 232.953 179.363C237.07 179.363 240.437 174.56 240.437 168.666C240.437 162.771 237.095 157.968 232.953 157.968C230.919 157.968 229.006 159.157 227.553 161.291C227.553 161.316 227.529 161.316 227.529 161.34C226.487 162.771 224.913 163.572 223.194 163.572C220.506 163.572 217.721 161.534 217.721 158.138V131.213C217.721 130.534 218.254 130 218.932 130C219.61 130 220.143 130.534 220.143 131.213V158.138C220.143 160.03 221.692 161.146 223.194 161.146C224.138 161.146 224.986 160.709 225.567 159.909C227.432 157.119 230.12 155.543 232.953 155.543C238.402 155.543 242.858 161.437 242.858 168.666C242.858 175.894 238.427 181.789 232.953 181.789C231.5 181.789 230.072 181.376 228.764 180.576C227.553 179.824 226.463 178.756 225.567 177.422C224.623 176.137 223.218 176.015 222.225 176.355C221.232 176.67 220.143 177.616 220.143 179.217V208.059C220.143 208.738 219.61 209.272 218.932 209.272Z" fill="#383A48"/>
<path d="M142.235 208.059H156.596H158.17H159.744H169.116C173.185 208.059 174.88 213.274 171.586 215.675C170.4 216.476 169.431 217.446 168.777 218.514C168.099 219.605 167.736 220.794 167.736 222.079C167.736 226.882 173.064 230.788 179.627 230.788C186.189 230.788 191.517 226.882 191.517 222.079C191.517 219.532 190.04 217.252 187.667 215.675C186.456 214.802 185.923 213.541 185.923 212.304C185.923 210.145 187.546 208.035 190.137 208.035H218.931" fill="#F6E049"/>
<path d="M179.627 232.002C172.41 232.002 166.525 227.563 166.525 222.08C166.525 220.625 166.937 219.194 167.736 217.884C168.487 216.647 169.552 215.58 170.884 214.682C172.168 213.736 172.289 212.329 171.95 211.335C171.635 210.34 170.715 209.249 169.092 209.249H142.211C141.533 209.249 141 208.715 141 208.036C141 207.357 141.533 206.823 142.211 206.823H169.092C171.49 206.823 173.5 208.303 174.25 210.583C175.001 212.863 174.226 215.24 172.289 216.647C172.264 216.647 172.264 216.671 172.24 216.671C171.199 217.375 170.351 218.224 169.794 219.145C169.237 220.067 168.947 221.062 168.947 222.056C168.947 226.18 173.742 229.552 179.627 229.552C185.511 229.552 190.306 226.204 190.306 222.056C190.306 220.019 189.12 218.102 186.989 216.647C186.964 216.647 186.964 216.623 186.94 216.623C185.511 215.58 184.688 214.003 184.688 212.281C184.688 209.588 186.722 206.799 190.113 206.799H218.907C219.585 206.799 220.118 207.332 220.118 208.011C220.118 208.691 219.585 209.224 218.907 209.224H190.137C188.248 209.224 187.134 210.777 187.134 212.281C187.134 213.227 187.57 214.076 188.369 214.658C191.154 216.526 192.728 219.218 192.728 222.056C192.728 227.563 186.843 232.002 179.627 232.002Z" fill="#383A48"/>
<path d="M220.142 255.579H217.72V263.584H220.142V255.579Z" fill="#383A48"/>
<path d="M222.929 258.368H214.937V260.794H222.929V258.368Z" fill="#383A48"/>
<path d="M502.009 169.2H499.587V177.205H502.009V169.2Z" fill="#383A48"/>
<path d="M504.793 171.99H496.801V174.416H504.793V171.99Z" fill="#383A48"/>
<path d="M359.801 153.968H357.38V161.973H359.801V153.968Z" fill="#F3F6E6"/>
<path d="M362.588 156.758H354.596V159.183H362.588V156.758Z" fill="#F3F6E6"/>
<path d="M479.723 208.219V214.629C485.545 215.177 489.938 216.958 494.164 219.516L489.831 226.947C486.989 225.211 483.569 223.749 479.723 223.171V234.24C488.205 235.564 494.787 239.31 494.62 247.212C494.407 255.784 487.87 260.428 479.768 261.601V268.468H472.077V261.768C465.95 261.251 459.779 259.271 455.553 255.937L460.296 248.583C463.062 250.699 467.288 252.648 472.031 253.303V242.127L471.651 242.051C463.169 240.696 457.043 237.026 457.21 228.758C457.347 220.917 463.518 215.862 472.031 214.674V208.219H479.723ZM472.031 232.915V223.338C468.808 224.099 466.802 225.835 466.726 228.332C466.695 230.768 468.641 232.047 472.031 232.915ZM479.723 243.467V253.074C482.915 252.313 485.028 250.608 485.089 248.004C485.119 245.72 483.219 244.365 479.723 243.467Z" fill="#383A48"/>
<path d="M451.392 130.048H424.753C424.075 130.048 423.542 130.582 423.542 131.261V171.091C423.542 171.77 424.075 172.304 424.753 172.304H451.392C452.07 172.304 452.603 171.77 452.603 171.091V131.261C452.603 130.606 452.046 130.048 451.392 130.048Z" fill="#9FBFFF"/>
<path d="M490.116 130.048H463.477C462.799 130.048 462.266 130.582 462.266 131.261V145.306C462.266 145.985 462.799 146.519 463.477 146.519H490.116C490.794 146.519 491.327 145.985 491.327 145.306V131.261C491.327 130.606 490.794 130.048 490.116 130.048Z" fill="#9FBFFF"/>
</svg>
