<svg width="660" height="496" viewBox="0 0 660 496" fill="none" xmlns="http://www.w3.org/2000/svg">
<rect opacity="0.45" x="0.5" y="0.5" width="659" height="495" rx="11.5" fill="#F0F2F7" stroke="white"/>
<path d="M403.407 326.126H341.792L404.3 263.104L425.464 277.392L403.407 326.126Z" fill="white"/>
<path d="M403.409 327.242H341.793C341.346 327.242 340.945 326.974 340.766 326.55C340.587 326.125 340.677 325.657 341.012 325.344L403.52 262.322C403.9 261.942 404.503 261.875 404.927 262.188L426.09 276.476C426.537 276.788 426.715 277.369 426.492 277.86L404.436 326.594C404.257 326.996 403.855 327.242 403.409 327.242ZM344.472 325.009H402.694L424.059 277.793L404.458 264.532L344.472 325.009Z" fill="#F0F2F7"/>
<path d="M160.142 322.689L317.686 322.689C318.311 322.689 318.802 322.198 318.802 321.573L318.802 169.118C318.802 168.717 318.579 168.337 318.244 168.136C318.066 168.047 317.887 168.002 317.686 168.002C317.485 168.002 317.284 168.047 317.106 168.158C307.573 173.896 299.603 181.419 292.727 191.197C286.677 199.77 282.257 208.901 277.948 217.719C273.394 227.073 269.108 235.891 263.348 243.147C256.941 251.206 249.619 256.206 240.242 258.885C222.405 263.975 217.561 274.356 212.426 285.34C209.077 292.506 205.639 299.896 198.25 306.169C189.833 313.313 177.309 317.978 159.963 320.479C159.383 320.568 158.959 321.082 159.003 321.662C159.07 322.242 159.561 322.689 160.142 322.689Z" fill="#F0F2F7"/>
<path d="M385.116 221.575L455.974 221.575C456.376 221.575 456.733 221.352 456.934 221.017C457.135 220.682 457.135 220.258 456.934 219.901C456.8 219.677 453.853 214.587 447.67 208.426C441.977 202.755 432.377 195.143 418.938 190.968C406.012 186.972 397.797 180.051 393.175 174.939C388.152 169.402 386.165 164.737 386.143 164.692C385.965 164.268 385.563 164 385.116 164C385.049 164 384.96 164 384.893 164.022C384.38 164.134 384 164.58 384 165.116L384 220.459C384 221.084 384.491 221.575 385.116 221.575Z" fill="#F0F2F7"/>
<path d="M362.733 266.185H360.5V273.552H362.733V266.185Z" fill="#383A48"/>
<path d="M365.3 268.752H357.933V270.985H365.3V268.752Z" fill="#383A48"/>
<path d="M456.094 180.727H453.861V188.094H456.094V180.727Z" fill="#383A48"/>
<path d="M458.661 183.294H451.294V185.526H458.661V183.294Z" fill="#383A48"/>
<path d="M288.37 222.272H286.138V229.64H288.37V222.272Z" fill="#383A48"/>
<path d="M290.938 224.817H283.571V227.05H290.938V224.817Z" fill="#383A48"/>
<path d="M331.255 326.797C319.758 326.797 310.426 317.465 310.426 305.968C310.426 294.471 319.758 285.139 331.255 285.139C342.752 285.139 352.084 294.471 352.084 305.968C352.084 317.465 342.752 326.797 331.255 326.797Z" fill="#FFD30D"/>
<path d="M331.255 327.912C319.156 327.912 309.31 318.066 309.31 305.967C309.31 293.867 319.156 284.021 331.255 284.021C343.355 284.021 353.2 293.867 353.2 305.967C353.2 318.066 343.355 327.912 331.255 327.912ZM331.255 286.232C320.383 286.232 311.543 295.072 311.543 305.944C311.543 316.816 320.383 325.679 331.255 325.679C342.128 325.679 350.968 316.839 350.968 305.967C350.968 295.094 342.128 286.232 331.255 286.232Z" fill="#383A48"/>
<path d="M321.477 302.931L328.286 312.397L337.506 301.011" fill="#FFD30D"/>
<path d="M328.286 313.514C327.906 313.514 327.594 313.335 327.393 313.045L322.304 307.151C321.947 306.66 322.058 305.945 322.549 305.588C323.041 305.231 323.755 305.343 324.112 305.834L328.308 310.544L336.613 300.275C336.992 299.806 337.707 299.717 338.176 300.119C338.644 300.498 338.734 301.213 338.332 301.682L329.112 313.089C328.933 313.38 328.621 313.514 328.286 313.514Z" fill="#383A48"/>
<path d="M383.552 223.599L285.914 321.237C282.275 324.875 277.342 326.907 272.229 326.907C271.604 326.907 271.002 326.885 270.376 326.818C264.617 326.26 259.415 323.179 256.2 318.379L220.77 262.477L217.734 257.99C211.751 249.127 214.095 237.116 222.958 231.133C231.575 225.329 243.184 227.383 249.301 235.643C249.479 235.866 249.636 236.112 249.814 236.357L275.154 277.302L356.205 196.251C363.75 188.705 376.007 188.705 383.552 196.251C391.098 203.797 391.098 216.031 383.552 223.599Z" fill="#7FD6C2"/>
<path d="M272.23 328.001C271.56 328.001 270.913 327.979 270.266 327.912C264.171 327.331 258.701 324.072 255.263 318.982L219.833 263.08L216.797 258.593C210.501 249.239 212.979 236.491 222.333 230.196C231.442 224.057 243.676 226.155 250.194 234.973C250.373 235.197 250.552 235.465 250.73 235.732L275.311 275.538L355.402 195.448C359.264 191.585 364.399 189.465 369.868 189.465C375.338 189.465 380.472 191.585 384.334 195.448C388.197 199.31 390.317 204.444 390.317 209.914C390.317 215.383 388.197 220.518 384.334 224.38L286.696 322.018C282.901 325.836 277.61 328.001 272.23 328.001ZM233.786 228.901C230.281 228.901 226.731 229.928 223.584 232.027C215.257 237.652 213.046 248.993 218.672 257.32L221.708 261.807L257.139 317.709C260.197 322.241 265.064 325.144 270.511 325.657C271.092 325.724 271.672 325.746 272.252 325.746C277.052 325.746 281.74 323.804 285.134 320.411L382.772 222.773C386.21 219.335 388.107 214.758 388.107 209.892C388.107 205.025 386.21 200.448 382.772 197.01C379.334 193.572 374.757 191.675 369.89 191.675C365.024 191.675 360.447 193.572 357.009 197.01L275.936 278.061C275.69 278.307 275.378 278.418 275.043 278.374C274.708 278.351 274.418 278.173 274.217 277.882L248.9 236.96C248.743 236.715 248.587 236.514 248.431 236.291C244.859 231.468 239.367 228.901 233.786 228.901Z" fill="#383A48"/>
<path d="M249.301 235.62C245.573 249.082 234.545 259.53 220.77 262.455L217.734 257.967C211.751 249.104 214.095 237.094 222.958 231.111C231.575 225.306 243.184 227.36 249.301 235.62Z" fill="#383A48"/>
<path d="M220.257 263.705L216.797 258.593C210.501 249.239 212.979 236.491 222.333 230.196C231.442 224.057 243.676 226.155 250.194 234.973L250.529 235.42L250.373 235.956C248.475 242.764 244.747 248.971 239.568 253.837C234.366 258.727 227.937 262.098 220.994 263.571L220.257 263.705ZM233.786 228.901C230.281 228.901 226.731 229.928 223.584 232.026C215.256 237.652 213.046 248.993 218.672 257.32L221.284 261.182C227.557 259.709 233.339 256.606 238.05 252.163C242.805 247.698 246.265 242.05 248.096 235.844C244.502 231.312 239.188 228.901 233.786 228.901Z" fill="#383A48"/>
<path d="M275.155 277.28L280.201 284.423L291.899 260.536L275.155 277.28Z" fill="#383A48"/>
<path d="M280.2 285.54C279.843 285.54 279.508 285.361 279.285 285.071L274.217 277.927C273.905 277.481 273.949 276.878 274.329 276.498L291.072 259.755C291.452 259.375 292.077 259.308 292.501 259.643C292.948 259.956 293.104 260.559 292.858 261.05L281.16 284.937C280.982 285.294 280.647 285.517 280.245 285.562C280.267 285.54 280.245 285.54 280.2 285.54ZM276.606 277.391L280.022 282.236L287.947 266.05L276.606 277.391Z" fill="#383A48"/>
<path d="M204.874 251.628C225.736 251.628 242.648 234.716 242.648 213.855C242.648 192.993 225.736 176.082 204.874 176.082C184.013 176.082 167.101 192.993 167.101 213.855C167.101 234.716 184.013 251.628 204.874 251.628Z" fill="#FFD30D"/>
<path d="M204.876 252.743C183.422 252.743 165.987 235.308 165.987 213.854C165.987 192.4 183.422 174.965 204.876 174.965C226.33 174.965 243.765 192.4 243.765 213.854C243.765 235.308 226.33 252.743 204.876 252.743ZM204.876 177.197C184.672 177.197 168.219 193.65 168.219 213.854C168.219 234.058 184.672 250.511 204.876 250.511C225.08 250.511 241.533 234.058 241.533 213.854C241.533 193.65 225.102 177.197 204.876 177.197Z" fill="#383A48"/>
<path d="M192.798 212.381C195.029 212.381 196.838 210.571 196.838 208.34C196.838 206.108 195.029 204.299 192.798 204.299C190.566 204.299 188.757 206.108 188.757 208.34C188.757 210.571 190.566 212.381 192.798 212.381Z" fill="#383A48"/>
<path d="M216.953 212.381C219.184 212.381 220.993 210.571 220.993 208.34C220.993 206.108 219.184 204.299 216.953 204.299C214.721 204.299 212.912 206.108 212.912 208.34C212.912 210.571 214.721 212.381 216.953 212.381Z" fill="#383A48"/>
<path d="M204.876 230.419C199.228 230.419 194.048 227.093 191.704 221.958C191.436 221.4 191.704 220.731 192.262 220.485C192.82 220.217 193.49 220.485 193.736 221.043C195.723 225.396 200.098 228.187 204.876 228.187C209.653 228.187 214.029 225.374 216.016 221.043C216.284 220.485 216.931 220.239 217.489 220.485C218.047 220.753 218.293 221.4 218.047 221.958C215.703 227.093 210.524 230.419 204.876 230.419Z" fill="#383A48"/>
<path d="M335.81 189.209C335.52 189.209 335.23 189.097 335.029 188.874C334.583 188.428 334.583 187.736 335.029 187.289L351.304 171.015C351.75 170.568 352.442 170.568 352.889 171.015C353.335 171.461 353.335 172.153 352.889 172.6L336.614 188.874C336.391 189.097 336.101 189.209 335.81 189.209Z" fill="#383A48"/>
<path d="M418.88 205.863L414.057 202.559L416.96 197.492C417.183 197.09 417.161 196.599 416.87 196.241C416.58 195.884 416.111 195.728 415.665 195.862L410.084 197.581L407.941 192.156C407.762 191.732 407.36 191.442 406.891 191.442C406.422 191.442 406.021 191.732 405.842 192.156L403.699 197.581L398.118 195.862C397.671 195.728 397.202 195.884 396.912 196.241C396.622 196.599 396.6 197.09 396.823 197.492L399.725 202.559L394.903 205.863C394.523 206.131 394.345 206.578 394.456 207.024C394.568 207.471 394.925 207.806 395.372 207.873L401.154 208.765L400.73 214.592C400.707 215.039 400.953 215.485 401.355 215.686C401.511 215.753 401.667 215.798 401.846 215.798C402.114 215.798 402.404 215.686 402.605 215.508L406.891 211.534L411.178 215.508C411.512 215.82 412.004 215.887 412.428 215.686C412.83 215.485 413.097 215.061 413.053 214.592L412.629 208.765L418.411 207.873C418.857 207.806 419.237 207.471 419.326 207.024C419.438 206.578 419.259 206.109 418.88 205.863Z" fill="#FFD30D"/>
<path d="M222.021 298.867L217.199 295.563L220.102 290.496C220.325 290.094 220.302 289.603 220.012 289.246C219.722 288.888 219.253 288.732 218.807 288.866L213.226 290.585L211.082 285.16C210.904 284.736 210.502 284.446 210.033 284.446C209.564 284.446 209.163 284.736 208.984 285.16L206.841 290.585L201.26 288.866C200.813 288.732 200.344 288.888 200.054 289.246C199.764 289.603 199.742 290.094 199.965 290.496L202.867 295.563L198.045 298.867C197.665 299.135 197.487 299.582 197.598 300.028C197.71 300.475 198.067 300.81 198.514 300.877L204.296 301.77L203.872 307.596C203.849 308.043 204.095 308.489 204.497 308.69C204.899 308.891 205.412 308.824 205.747 308.512L210.033 304.538L214.32 308.512C214.52 308.713 214.811 308.802 215.079 308.802C215.235 308.802 215.413 308.757 215.57 308.69C215.972 308.489 216.239 308.065 216.195 307.596L215.771 301.77L221.553 300.877C221.999 300.81 222.379 300.475 222.468 300.028C222.58 299.604 222.401 299.135 222.021 298.867Z" fill="#FFD30D"/>
<path d="M473.374 325.278H393.073L377.557 309.784L393.073 245.445H473.374V325.278Z" fill="#F0F2F7"/>
<path d="M473.374 326.394H393.072C392.782 326.394 392.492 326.282 392.291 326.059L380.291 310.565C380.023 310.298 379.911 309.896 380.001 309.516L392.001 245.199C392.112 244.708 392.581 244.351 393.095 244.351H473.396C474.021 244.351 474.512 244.842 474.512 245.467V325.277C474.49 325.902 473.977 326.394 473.374 326.394ZM393.519 324.161H472.235V246.561H393.921L382.3 309.427L393.519 324.161Z" fill="#383A48"/>
<path d="M472.504 263.797C473.12 263.797 473.62 263.297 473.62 262.681C473.62 262.064 473.12 261.565 472.504 261.565C471.888 261.565 471.388 262.064 471.388 262.681C471.388 263.297 471.888 263.797 472.504 263.797Z" fill="#383A48"/>
<path d="M472.504 269.311C473.12 269.311 473.62 268.812 473.62 268.195C473.62 267.579 473.12 267.079 472.504 267.079C471.888 267.079 471.388 267.579 471.388 268.195C471.388 268.812 471.888 269.311 472.504 269.311Z" fill="#383A48"/>
<path d="M472.504 274.825C473.12 274.825 473.62 274.325 473.62 273.709C473.62 273.092 473.12 272.593 472.504 272.593C471.888 272.593 471.388 273.092 471.388 273.709C471.388 274.325 471.888 274.825 472.504 274.825Z" fill="#383A48"/>
<path d="M472.504 280.317C473.12 280.317 473.62 279.817 473.62 279.2C473.62 278.584 473.12 278.084 472.504 278.084C471.888 278.084 471.388 278.584 471.388 279.2C471.388 279.817 471.888 280.317 472.504 280.317Z" fill="#383A48"/>
<path d="M472.504 285.831C473.12 285.831 473.62 285.331 473.62 284.715C473.62 284.098 473.12 283.599 472.504 283.599C471.888 283.599 471.388 284.098 471.388 284.715C471.388 285.331 471.888 285.831 472.504 285.831Z" fill="#383A48"/>
<path d="M472.504 291.345C473.12 291.345 473.62 290.845 473.62 290.229C473.62 289.613 473.12 289.113 472.504 289.113C471.888 289.113 471.388 289.613 471.388 290.229C471.388 290.845 471.888 291.345 472.504 291.345Z" fill="#383A48"/>
<path d="M472.504 296.837C473.12 296.837 473.62 296.337 473.62 295.72C473.62 295.104 473.12 294.604 472.504 294.604C471.888 294.604 471.388 295.104 471.388 295.72C471.388 296.337 471.888 296.837 472.504 296.837Z" fill="#383A48"/>
<path d="M472.504 302.351C473.12 302.351 473.62 301.852 473.62 301.235C473.62 300.619 473.12 300.119 472.504 300.119C471.888 300.119 471.388 300.619 471.388 301.235C471.388 301.852 471.888 302.351 472.504 302.351Z" fill="#383A48"/>
<path d="M472.504 307.866C473.12 307.866 473.62 307.366 473.62 306.749C473.62 306.133 473.12 305.633 472.504 305.633C471.888 305.633 471.388 306.133 471.388 306.749C471.388 307.366 471.888 307.866 472.504 307.866Z" fill="#383A48"/>
<path d="M472.504 313.357C473.12 313.357 473.62 312.858 473.62 312.241C473.62 311.625 473.12 311.125 472.504 311.125C471.888 311.125 471.388 311.625 471.388 312.241C471.388 312.858 471.888 313.357 472.504 313.357Z" fill="#383A48"/>
<path d="M472.504 318.872C473.12 318.872 473.62 318.372 473.62 317.755C473.62 317.139 473.12 316.639 472.504 316.639C471.888 316.639 471.388 317.139 471.388 317.755C471.388 318.372 471.888 318.872 472.504 318.872Z" fill="#383A48"/>
<path d="M472.504 324.386C473.12 324.386 473.62 323.886 473.62 323.269C473.62 322.653 473.12 322.153 472.504 322.153C471.888 322.153 471.388 322.653 471.388 323.269C471.388 323.886 471.888 324.386 472.504 324.386Z" fill="#383A48"/>
<path d="M466.99 258.305C467.606 258.305 468.106 257.805 468.106 257.188C468.106 256.572 467.606 256.072 466.99 256.072C466.373 256.072 465.874 256.572 465.874 257.188C465.874 257.805 466.373 258.305 466.99 258.305Z" fill="#383A48"/>
<path d="M466.99 263.797C467.606 263.797 468.106 263.297 468.106 262.681C468.106 262.064 467.606 261.565 466.99 261.565C466.373 261.565 465.874 262.064 465.874 262.681C465.874 263.297 466.373 263.797 466.99 263.797Z" fill="#383A48"/>
<path d="M466.99 269.311C467.606 269.311 468.106 268.812 468.106 268.195C468.106 267.579 467.606 267.079 466.99 267.079C466.373 267.079 465.874 267.579 465.874 268.195C465.874 268.812 466.373 269.311 466.99 269.311Z" fill="#383A48"/>
<path d="M466.99 274.825C467.606 274.825 468.106 274.325 468.106 273.709C468.106 273.092 467.606 272.593 466.99 272.593C466.373 272.593 465.874 273.092 465.874 273.709C465.874 274.325 466.373 274.825 466.99 274.825Z" fill="#383A48"/>
<path d="M466.99 280.317C467.606 280.317 468.106 279.817 468.106 279.2C468.106 278.584 467.606 278.084 466.99 278.084C466.373 278.084 465.874 278.584 465.874 279.2C465.874 279.817 466.373 280.317 466.99 280.317Z" fill="#383A48"/>
<path d="M466.99 285.831C467.606 285.831 468.106 285.331 468.106 284.715C468.106 284.098 467.606 283.599 466.99 283.599C466.373 283.599 465.874 284.098 465.874 284.715C465.874 285.331 466.373 285.831 466.99 285.831Z" fill="#383A48"/>
<path d="M466.99 291.345C467.606 291.345 468.106 290.845 468.106 290.229C468.106 289.613 467.606 289.113 466.99 289.113C466.373 289.113 465.874 289.613 465.874 290.229C465.874 290.845 466.373 291.345 466.99 291.345Z" fill="#383A48"/>
<path d="M466.99 296.837C467.606 296.837 468.106 296.337 468.106 295.72C468.106 295.104 467.606 294.604 466.99 294.604C466.373 294.604 465.874 295.104 465.874 295.72C465.874 296.337 466.373 296.837 466.99 296.837Z" fill="#383A48"/>
<path d="M466.99 302.351C467.606 302.351 468.106 301.852 468.106 301.235C468.106 300.619 467.606 300.119 466.99 300.119C466.373 300.119 465.874 300.619 465.874 301.235C465.874 301.852 466.373 302.351 466.99 302.351Z" fill="#383A48"/>
<path d="M466.99 307.866C467.606 307.866 468.106 307.366 468.106 306.749C468.106 306.133 467.606 305.633 466.99 305.633C466.373 305.633 465.874 306.133 465.874 306.749C465.874 307.366 466.373 307.866 466.99 307.866Z" fill="#383A48"/>
<path d="M466.99 313.357C467.606 313.357 468.106 312.858 468.106 312.241C468.106 311.625 467.606 311.125 466.99 311.125C466.373 311.125 465.874 311.625 465.874 312.241C465.874 312.858 466.373 313.357 466.99 313.357Z" fill="#383A48"/>
<path d="M466.99 318.872C467.606 318.872 468.106 318.372 468.106 317.755C468.106 317.139 467.606 316.639 466.99 316.639C466.373 316.639 465.874 317.139 465.874 317.755C465.874 318.372 466.373 318.872 466.99 318.872Z" fill="#383A48"/>
<path d="M466.99 324.386C467.606 324.386 468.106 323.886 468.106 323.269C468.106 322.653 467.606 322.153 466.99 322.153C466.373 322.153 465.874 322.653 465.874 323.269C465.874 323.886 466.373 324.386 466.99 324.386Z" fill="#383A48"/>
<path d="M461.475 252.791C462.091 252.791 462.591 252.291 462.591 251.675C462.591 251.058 462.091 250.558 461.475 250.558C460.858 250.558 460.359 251.058 460.359 251.675C460.359 252.291 460.858 252.791 461.475 252.791Z" fill="#383A48"/>
<path d="M461.475 258.305C462.091 258.305 462.591 257.805 462.591 257.188C462.591 256.572 462.091 256.072 461.475 256.072C460.858 256.072 460.359 256.572 460.359 257.188C460.359 257.805 460.858 258.305 461.475 258.305Z" fill="#383A48"/>
<path d="M461.475 263.797C462.091 263.797 462.591 263.297 462.591 262.681C462.591 262.064 462.091 261.565 461.475 261.565C460.858 261.565 460.359 262.064 460.359 262.681C460.359 263.297 460.858 263.797 461.475 263.797Z" fill="#383A48"/>
<path d="M461.475 269.311C462.091 269.311 462.591 268.812 462.591 268.195C462.591 267.579 462.091 267.079 461.475 267.079C460.858 267.079 460.359 267.579 460.359 268.195C460.359 268.812 460.858 269.311 461.475 269.311Z" fill="#383A48"/>
<path d="M461.475 274.825C462.091 274.825 462.591 274.325 462.591 273.709C462.591 273.092 462.091 272.593 461.475 272.593C460.858 272.593 460.359 273.092 460.359 273.709C460.359 274.325 460.858 274.825 461.475 274.825Z" fill="#383A48"/>
<path d="M461.475 280.317C462.091 280.317 462.591 279.817 462.591 279.2C462.591 278.584 462.091 278.084 461.475 278.084C460.858 278.084 460.359 278.584 460.359 279.2C460.359 279.817 460.858 280.317 461.475 280.317Z" fill="#383A48"/>
<path d="M461.475 285.831C462.091 285.831 462.591 285.331 462.591 284.715C462.591 284.098 462.091 283.599 461.475 283.599C460.858 283.599 460.359 284.098 460.359 284.715C460.359 285.331 460.858 285.831 461.475 285.831Z" fill="#383A48"/>
<path d="M461.475 291.345C462.091 291.345 462.591 290.845 462.591 290.229C462.591 289.613 462.091 289.113 461.475 289.113C460.858 289.113 460.359 289.613 460.359 290.229C460.359 290.845 460.858 291.345 461.475 291.345Z" fill="#383A48"/>
<path d="M461.475 296.837C462.091 296.837 462.591 296.337 462.591 295.72C462.591 295.104 462.091 294.604 461.475 294.604C460.858 294.604 460.359 295.104 460.359 295.72C460.359 296.337 460.858 296.837 461.475 296.837Z" fill="#383A48"/>
<path d="M461.475 302.351C462.091 302.351 462.591 301.852 462.591 301.235C462.591 300.619 462.091 300.119 461.475 300.119C460.858 300.119 460.359 300.619 460.359 301.235C460.359 301.852 460.858 302.351 461.475 302.351Z" fill="#383A48"/>
<path d="M461.475 307.866C462.091 307.866 462.591 307.366 462.591 306.749C462.591 306.133 462.091 305.633 461.475 305.633C460.858 305.633 460.359 306.133 460.359 306.749C460.359 307.366 460.858 307.866 461.475 307.866Z" fill="#383A48"/>
<path d="M461.475 313.357C462.091 313.357 462.591 312.858 462.591 312.241C462.591 311.625 462.091 311.125 461.475 311.125C460.858 311.125 460.359 311.625 460.359 312.241C460.359 312.858 460.858 313.357 461.475 313.357Z" fill="#383A48"/>
<path d="M461.475 318.872C462.091 318.872 462.591 318.372 462.591 317.755C462.591 317.139 462.091 316.639 461.475 316.639C460.858 316.639 460.359 317.139 460.359 317.755C460.359 318.372 460.858 318.872 461.475 318.872Z" fill="#383A48"/>
<path d="M461.475 324.386C462.091 324.386 462.591 323.886 462.591 323.269C462.591 322.653 462.091 322.153 461.475 322.153C460.858 322.153 460.359 322.653 460.359 323.269C460.359 323.886 460.858 324.386 461.475 324.386Z" fill="#383A48"/>
<path d="M455.984 313.357C456.601 313.357 457.1 312.858 457.1 312.241C457.1 311.625 456.601 311.125 455.984 311.125C455.368 311.125 454.868 311.625 454.868 312.241C454.868 312.858 455.368 313.357 455.984 313.357Z" fill="#383A48"/>
<path d="M455.984 318.872C456.601 318.872 457.1 318.372 457.1 317.755C457.1 317.139 456.601 316.639 455.984 316.639C455.368 316.639 454.868 317.139 454.868 317.755C454.868 318.372 455.368 318.872 455.984 318.872Z" fill="#383A48"/>
<path d="M455.984 324.386C456.601 324.386 457.1 323.886 457.1 323.269C457.1 322.653 456.601 322.153 455.984 322.153C455.368 322.153 454.868 322.653 454.868 323.269C454.868 323.886 455.368 324.386 455.984 324.386Z" fill="#383A48"/>
<path d="M450.47 313.357C451.086 313.357 451.586 312.858 451.586 312.241C451.586 311.625 451.086 311.125 450.47 311.125C449.853 311.125 449.353 311.625 449.353 312.241C449.353 312.858 449.853 313.357 450.47 313.357Z" fill="#383A48"/>
<path d="M450.47 318.872C451.086 318.872 451.586 318.372 451.586 317.755C451.586 317.139 451.086 316.639 450.47 316.639C449.853 316.639 449.353 317.139 449.353 317.755C449.353 318.372 449.853 318.872 450.47 318.872Z" fill="#383A48"/>
<path d="M450.47 324.386C451.086 324.386 451.586 323.886 451.586 323.269C451.586 322.653 451.086 322.153 450.47 322.153C449.853 322.153 449.353 322.653 449.353 323.269C449.353 323.886 449.853 324.386 450.47 324.386Z" fill="#383A48"/>
<path d="M444.956 313.357C445.572 313.357 446.072 312.858 446.072 312.241C446.072 311.625 445.572 311.125 444.956 311.125C444.339 311.125 443.839 311.625 443.839 312.241C443.839 312.858 444.339 313.357 444.956 313.357Z" fill="#383A48"/>
<path d="M444.956 318.872C445.572 318.872 446.072 318.372 446.072 317.755C446.072 317.139 445.572 316.639 444.956 316.639C444.339 316.639 443.839 317.139 443.839 317.755C443.839 318.372 444.339 318.872 444.956 318.872Z" fill="#383A48"/>
<path d="M444.956 324.386C445.572 324.386 446.072 323.886 446.072 323.269C446.072 322.653 445.572 322.153 444.956 322.153C444.339 322.153 443.839 322.653 443.839 323.269C443.839 323.886 444.339 324.386 444.956 324.386Z" fill="#383A48"/>
<path d="M439.463 313.357C440.08 313.357 440.58 312.858 440.58 312.241C440.58 311.625 440.08 311.125 439.463 311.125C438.847 311.125 438.347 311.625 438.347 312.241C438.347 312.858 438.847 313.357 439.463 313.357Z" fill="#383A48"/>
<path d="M439.463 318.872C440.08 318.872 440.58 318.372 440.58 317.755C440.58 317.139 440.08 316.639 439.463 316.639C438.847 316.639 438.347 317.139 438.347 317.755C438.347 318.372 438.847 318.872 439.463 318.872Z" fill="#383A48"/>
<path d="M439.463 324.386C440.08 324.386 440.58 323.886 440.58 323.269C440.58 322.653 440.08 322.153 439.463 322.153C438.847 322.153 438.347 322.653 438.347 323.269C438.347 323.886 438.847 324.386 439.463 324.386Z" fill="#383A48"/>
<path d="M433.95 313.357C434.567 313.357 435.066 312.858 435.066 312.241C435.066 311.625 434.567 311.125 433.95 311.125C433.334 311.125 432.834 311.625 432.834 312.241C432.834 312.858 433.334 313.357 433.95 313.357Z" fill="#383A48"/>
<path d="M433.95 318.872C434.567 318.872 435.066 318.372 435.066 317.755C435.066 317.139 434.567 316.639 433.95 316.639C433.334 316.639 432.834 317.139 432.834 317.755C432.834 318.372 433.334 318.872 433.95 318.872Z" fill="#383A48"/>
<path d="M433.95 324.386C434.567 324.386 435.066 323.886 435.066 323.269C435.066 322.653 434.567 322.153 433.95 322.153C433.334 322.153 432.834 322.653 432.834 323.269C432.834 323.886 433.334 324.386 433.95 324.386Z" fill="#383A48"/>
<path d="M428.436 313.357C429.052 313.357 429.552 312.858 429.552 312.241C429.552 311.625 429.052 311.125 428.436 311.125C427.819 311.125 427.319 311.625 427.319 312.241C427.319 312.858 427.819 313.357 428.436 313.357Z" fill="#383A48"/>
<path d="M428.436 318.872C429.052 318.872 429.552 318.372 429.552 317.755C429.552 317.139 429.052 316.639 428.436 316.639C427.819 316.639 427.319 317.139 427.319 317.755C427.319 318.372 427.819 318.872 428.436 318.872Z" fill="#383A48"/>
<path d="M428.436 324.386C429.052 324.386 429.552 323.886 429.552 323.269C429.552 322.653 429.052 322.153 428.436 322.153C427.819 322.153 427.319 322.653 427.319 323.269C427.319 323.886 427.819 324.386 428.436 324.386Z" fill="#383A48"/>
<path d="M422.943 313.357C423.56 313.357 424.06 312.858 424.06 312.241C424.06 311.625 423.56 311.125 422.943 311.125C422.327 311.125 421.827 311.625 421.827 312.241C421.827 312.858 422.327 313.357 422.943 313.357Z" fill="#383A48"/>
<path d="M422.943 318.872C423.56 318.872 424.06 318.372 424.06 317.755C424.06 317.139 423.56 316.639 422.943 316.639C422.327 316.639 421.827 317.139 421.827 317.755C421.827 318.372 422.327 318.872 422.943 318.872Z" fill="#383A48"/>
<path d="M422.943 324.386C423.56 324.386 424.06 323.886 424.06 323.269C424.06 322.653 423.56 322.153 422.943 322.153C422.327 322.153 421.827 322.653 421.827 323.269C421.827 323.886 422.327 324.386 422.943 324.386Z" fill="#383A48"/>
<path d="M417.429 313.357C418.046 313.357 418.546 312.858 418.546 312.241C418.546 311.625 418.046 311.125 417.429 311.125C416.813 311.125 416.313 311.625 416.313 312.241C416.313 312.858 416.813 313.357 417.429 313.357Z" fill="#383A48"/>
<path d="M417.429 318.872C418.046 318.872 418.546 318.372 418.546 317.755C418.546 317.139 418.046 316.639 417.429 316.639C416.813 316.639 416.313 317.139 416.313 317.755C416.313 318.372 416.813 318.872 417.429 318.872Z" fill="#383A48"/>
<path d="M417.429 324.386C418.046 324.386 418.546 323.886 418.546 323.269C418.546 322.653 418.046 322.153 417.429 322.153C416.813 322.153 416.313 322.653 416.313 323.269C416.313 323.886 416.813 324.386 417.429 324.386Z" fill="#383A48"/>
<path d="M411.915 313.357C412.532 313.357 413.031 312.858 413.031 312.241C413.031 311.625 412.532 311.125 411.915 311.125C411.299 311.125 410.799 311.625 410.799 312.241C410.799 312.858 411.299 313.357 411.915 313.357Z" fill="#383A48"/>
<path d="M411.915 318.872C412.532 318.872 413.031 318.372 413.031 317.755C413.031 317.139 412.532 316.639 411.915 316.639C411.299 316.639 410.799 317.139 410.799 317.755C410.799 318.372 411.299 318.872 411.915 318.872Z" fill="#383A48"/>
<path d="M411.915 324.386C412.532 324.386 413.031 323.886 413.031 323.269C413.031 322.653 412.532 322.153 411.915 322.153C411.299 322.153 410.799 322.653 410.799 323.269C410.799 323.886 411.299 324.386 411.915 324.386Z" fill="#383A48"/>
<path d="M406.423 313.357C407.04 313.357 407.539 312.858 407.539 312.241C407.539 311.625 407.04 311.125 406.423 311.125C405.807 311.125 405.307 311.625 405.307 312.241C405.307 312.858 405.807 313.357 406.423 313.357Z" fill="#383A48"/>
<path d="M406.423 318.872C407.04 318.872 407.539 318.372 407.539 317.755C407.539 317.139 407.04 316.639 406.423 316.639C405.807 316.639 405.307 317.139 405.307 317.755C405.307 318.372 405.807 318.872 406.423 318.872Z" fill="#383A48"/>
<path d="M406.423 324.386C407.04 324.386 407.539 323.886 407.539 323.269C407.539 322.653 407.04 322.153 406.423 322.153C405.807 322.153 405.307 322.653 405.307 323.269C405.307 323.886 405.807 324.386 406.423 324.386Z" fill="#383A48"/>
<path d="M400.909 313.357C401.526 313.357 402.025 312.858 402.025 312.241C402.025 311.625 401.526 311.125 400.909 311.125C400.293 311.125 399.793 311.625 399.793 312.241C399.793 312.858 400.293 313.357 400.909 313.357Z" fill="#383A48"/>
<path d="M400.909 318.872C401.526 318.872 402.025 318.372 402.025 317.755C402.025 317.139 401.526 316.639 400.909 316.639C400.293 316.639 399.793 317.139 399.793 317.755C399.793 318.372 400.293 318.872 400.909 318.872Z" fill="#383A48"/>
<path d="M400.909 324.386C401.526 324.386 402.025 323.886 402.025 323.269C402.025 322.653 401.526 322.153 400.909 322.153C400.293 322.153 399.793 322.653 399.793 323.269C399.793 323.886 400.293 324.386 400.909 324.386Z" fill="#383A48"/>
<path d="M395.395 313.357C396.012 313.357 396.511 312.858 396.511 312.241C396.511 311.625 396.012 311.125 395.395 311.125C394.779 311.125 394.279 311.625 394.279 312.241C394.279 312.858 394.779 313.357 395.395 313.357Z" fill="#383A48"/>
<path d="M395.395 318.872C396.012 318.872 396.511 318.372 396.511 317.755C396.511 317.139 396.012 316.639 395.395 316.639C394.779 316.639 394.279 317.139 394.279 317.755C394.279 318.372 394.779 318.872 395.395 318.872Z" fill="#383A48"/>
<path d="M395.395 324.386C396.012 324.386 396.511 323.886 396.511 323.269C396.511 322.653 396.012 322.153 395.395 322.153C394.779 322.153 394.279 322.653 394.279 323.269C394.279 323.886 394.779 324.386 395.395 324.386Z" fill="#383A48"/>
<path d="M389.903 313.357C390.519 313.357 391.019 312.858 391.019 312.241C391.019 311.625 390.519 311.125 389.903 311.125C389.286 311.125 388.786 311.625 388.786 312.241C388.786 312.858 389.286 313.357 389.903 313.357Z" fill="#383A48"/>
<path d="M389.903 318.872C390.519 318.872 391.019 318.372 391.019 317.755C391.019 317.139 390.519 316.639 389.903 316.639C389.286 316.639 388.786 317.139 388.786 317.755C388.786 318.372 389.286 318.872 389.903 318.872Z" fill="#383A48"/>
<path d="M384.389 313.357C385.005 313.357 385.505 312.858 385.505 312.241C385.505 311.625 385.005 311.125 384.389 311.125C383.772 311.125 383.273 311.625 383.273 312.241C383.273 312.858 383.772 313.357 384.389 313.357Z" fill="#383A48"/>
<path d="M393.072 260.96L457.88 245.444L473.374 260.96V241.426L457.88 225.932L393.072 241.426V260.96Z" fill="#383A48"/>
<path d="M473.374 262.077C473.083 262.077 472.793 261.965 472.592 261.742L457.545 246.695L393.318 262.032C392.983 262.121 392.626 262.032 392.358 261.831C392.09 261.63 391.934 261.295 391.934 260.96V241.449C391.934 240.935 392.291 240.489 392.782 240.355L457.59 224.862C457.97 224.772 458.371 224.884 458.639 225.152L474.133 240.645C474.334 240.846 474.467 241.136 474.467 241.426V260.938C474.467 261.385 474.2 261.786 473.775 261.965C473.664 262.032 473.508 262.077 473.374 262.077ZM394.188 242.319V259.532L457.612 244.373C457.992 244.284 458.394 244.396 458.662 244.663L472.257 258.259V241.895L457.523 227.161L394.188 242.319Z" fill="#383A48"/>
<path d="M457.858 229.952H381.049V309.762H457.858V229.952Z" fill="#F0F2F7"/>
<path d="M457.927 310.901H381.025C380.426 310.901 379.956 310.41 379.956 309.785V229.952C379.956 229.327 380.426 228.836 381.025 228.836H457.927C458.526 228.836 458.996 229.327 458.996 229.952V309.762C458.996 310.388 458.505 310.901 457.927 310.901ZM382.072 308.669H456.837V231.068H382.072V308.669Z" fill="#383A48"/>
<path d="M457.858 225.933H381.049V245.445H457.858V225.933Z" fill="#383A48"/>
<path d="M457.927 246.561H381.025C380.426 246.561 379.956 246.07 379.956 245.445V225.933C379.956 225.308 380.426 224.817 381.025 224.817H457.927C458.526 224.817 458.996 225.308 458.996 225.933V245.445C458.996 246.07 458.505 246.561 457.927 246.561ZM382.072 244.329H456.837V227.05H382.072V244.329Z" fill="#383A48"/>
<path d="M473.374 326.394C473.084 326.394 472.794 326.282 472.593 326.059L457.1 310.565C456.653 310.119 456.653 309.427 457.1 308.98C457.546 308.534 458.238 308.534 458.685 308.98L474.178 324.474C474.624 324.92 474.624 325.612 474.178 326.059C473.932 326.282 473.665 326.394 473.374 326.394Z" fill="#383A48"/>
<path d="M294.933 327.912H200.434C199.809 327.912 199.317 327.421 199.317 326.796C199.317 326.171 199.809 325.68 200.434 325.68H294.956C295.581 325.68 296.072 326.171 296.072 326.796C296.072 327.421 295.559 327.912 294.933 327.912Z" fill="#383A48"/>
<path d="M402.355 280.924L409.674 288.242C410.455 289.023 411.721 289.023 412.503 288.242L436.705 264.04" stroke="#383A48" stroke-width="2"/>
</svg>
