<svg width="205" height="32" viewBox="0 0 205 32" fill="none" xmlns="http://www.w3.org/2000/svg">
<path d="M107.561 19.3644H103.217V8.32327L98.3086 16.3818H97.8005L92.8871 8.32327V19.3644H88.5479V0.371399H92.8871L98.0444 8.81105L103.197 0.371399H107.541L107.561 19.3644Z" fill="#282827"/>
<path d="M120.579 4.57852V8.24197H127.636V12.4186H120.579V19.3644H116.24V0.371399H127.769V4.57852H120.579Z" fill="#282827"/>
<path d="M140.115 4.57852V8.24197H147.168V12.4186H140.115V19.3644H135.776V0.371399H147.305V4.57852H140.115Z" fill="#282827"/>
<path d="M165.617 16.3818H158.575L157.625 19.3644H152.874L159.332 0.371399H164.871L171.324 19.3644H166.578L165.617 16.3818ZM164.317 12.317L162.091 5.34068L159.866 12.317H164.317Z" fill="#282827"/>
<path d="M182.71 0.371399V19.3644H178.391V0.371399H182.71Z" fill="#282827"/>
<path d="M190.169 15.0506L193.914 12.881C194.204 13.6925 194.75 14.3879 195.469 14.8625C196.188 15.3372 197.042 15.5654 197.903 15.513C199.965 15.513 200.479 14.7 200.479 13.9886C200.479 12.8251 199.396 12.3627 196.546 11.5751C193.695 10.7876 190.957 9.43093 190.957 5.79796C190.957 2.165 194.051 0.00554645 197.333 0.00554645C198.788 -0.0509245 200.226 0.324858 201.467 1.08542C202.708 1.84598 203.695 2.95721 204.305 4.27873L200.641 6.42294C199.991 5.06629 199.117 4.22791 197.359 4.22791C196.002 4.22791 195.326 4.9037 195.326 5.66586C195.326 6.52965 195.789 7.1292 198.746 8.02347C201.622 8.89233 204.843 9.89838 204.843 13.9124C204.843 17.5759 201.912 19.7455 197.786 19.7455C193.777 19.7455 191.226 17.8452 190.169 15.0506Z" fill="#282827"/>
<path d="M96.4133 28.6779V31.8485H94.889V28.7999C94.889 28.2918 94.64 27.9513 94.1472 27.9513C93.6543 27.9513 93.3393 28.3121 93.3393 28.9218V31.8333H91.7896V28.7846C91.7896 28.2765 91.5457 27.9361 91.0477 27.9361C90.5498 27.9361 90.2449 28.2969 90.2449 28.9066V31.818H88.6952V26.6862H90.2449V27.1638C90.4049 26.953 90.6154 26.7858 90.8568 26.6774C91.0983 26.5691 91.3631 26.5232 91.627 26.5439C91.892 26.5299 92.1562 26.5853 92.3932 26.7047C92.6303 26.8242 92.832 27.0034 92.9785 27.2248C93.1504 26.9938 93.378 26.8101 93.6402 26.691C93.9023 26.572 94.1904 26.5213 94.4774 26.5439C95.641 26.5439 96.4133 27.3873 96.4133 28.6779Z" fill="#FFD30D"/>
<path d="M102.77 26.6862V31.8485H101.245V31.3404C101.054 31.5515 100.817 31.7175 100.554 31.8264C100.29 31.9354 100.006 31.9846 99.721 31.9705C99.0484 31.8992 98.4259 31.5816 97.9736 31.0787C97.5212 30.5759 97.2709 29.9234 97.2709 29.247C97.2709 28.5706 97.5212 27.9182 97.9736 27.4153C98.4259 26.9125 99.0484 26.5948 99.721 26.5236C100.006 26.5106 100.29 26.5602 100.553 26.6691C100.817 26.778 101.053 26.9434 101.245 27.1536V26.6455L102.77 26.6862ZM101.245 29.2673C101.239 29.0255 101.162 28.7909 101.023 28.5927C100.885 28.3946 100.691 28.2417 100.466 28.1533C100.24 28.0649 99.9942 28.0449 99.7577 28.0957C99.5212 28.1465 99.305 28.266 99.136 28.4391C98.9671 28.6122 98.853 28.8313 98.808 29.0689C98.7629 29.3066 98.789 29.5522 98.8829 29.7752C98.9768 29.9981 99.1344 30.1883 99.3358 30.3222C99.5373 30.456 99.7738 30.5274 100.016 30.5275C100.18 30.5313 100.343 30.501 100.495 30.4383C100.647 30.3757 100.784 30.2822 100.898 30.1636C101.012 30.0451 101.099 29.9042 101.156 29.7499C101.212 29.5956 101.236 29.4313 101.225 29.2673H101.245Z" fill="#FFD30D"/>
<path d="M107.104 31.8486L105.452 29.5672V31.8486H103.903V24.6233H105.452V28.9676L107.002 26.7065H108.806L106.931 29.2877L108.862 31.8689L107.104 31.8486Z" fill="#FFD30D"/>
<path d="M111.738 30.6088C111.921 30.6144 112.103 30.5826 112.273 30.5153C112.444 30.448 112.599 30.3467 112.729 30.2175L113.968 30.9289C113.71 31.2785 113.37 31.5586 112.977 31.744C112.584 31.9293 112.151 32.0142 111.717 31.9908C111.36 31.9982 111.004 31.935 110.671 31.8049C110.338 31.6748 110.033 31.4804 109.775 31.2327C109.517 30.985 109.31 30.6888 109.167 30.3612C109.023 30.0336 108.945 29.6809 108.938 29.3233C108.931 28.9656 108.994 28.61 109.124 28.2768C109.254 27.9435 109.449 27.6392 109.696 27.3811C109.944 27.123 110.24 26.9163 110.568 26.7726C110.895 26.629 111.248 26.5513 111.606 26.5439C111.959 26.5415 112.31 26.611 112.636 26.7484C112.962 26.8857 113.256 27.0879 113.501 27.3427C113.747 27.5974 113.937 27.8995 114.062 28.2304C114.187 28.5612 114.243 28.9141 114.227 29.2674C114.229 29.4758 114.207 29.6838 114.161 29.8873H110.498C110.596 30.1277 110.77 30.3289 110.995 30.4594C111.219 30.59 111.48 30.6425 111.738 30.6088ZM112.688 28.7339C112.614 28.4975 112.466 28.2909 112.266 28.1443C112.067 27.9977 111.825 27.9186 111.578 27.9186C111.33 27.9186 111.089 27.9977 110.889 28.1443C110.689 28.2909 110.542 28.4975 110.467 28.7339H112.688Z" fill="#FFD30D"/>
<path d="M120.304 30.6087C120.487 30.6143 120.67 30.5825 120.84 30.5153C121.01 30.448 121.165 30.3467 121.295 30.2175L122.53 30.9288C122.273 31.2781 121.933 31.5579 121.541 31.7433C121.149 31.9287 120.717 32.0137 120.284 31.9908C118.516 31.9908 117.423 30.8069 117.423 29.2673C117.412 28.9048 117.475 28.5439 117.609 28.207C117.744 27.87 117.946 27.5643 118.203 27.3088C118.46 27.0533 118.768 26.8536 119.105 26.722C119.443 26.5904 119.805 26.5297 120.167 26.5439C120.521 26.5407 120.872 26.6098 121.198 26.7469C121.524 26.8839 121.819 27.0861 122.065 27.341C122.31 27.596 122.501 27.8983 122.625 28.2295C122.75 28.5607 122.806 28.9138 122.789 29.2673C122.79 29.4755 122.77 29.6832 122.728 29.8872H119.065C119.162 30.1282 119.336 30.3299 119.561 30.4606C119.785 30.5912 120.047 30.6434 120.304 30.6087ZM121.249 28.7338C121.177 28.4967 121.03 28.2892 120.831 28.1417C120.631 27.9942 120.39 27.9147 120.142 27.9147C119.894 27.9147 119.652 27.9942 119.453 28.1417C119.254 28.2892 119.107 28.4967 119.034 28.7338H121.249Z" fill="#FFD30D"/>
<path d="M128.622 28.678V31.8486H127.072V28.9067C127.085 28.7836 127.071 28.6592 127.031 28.5421C126.991 28.425 126.926 28.3181 126.84 28.2287C126.755 28.1393 126.651 28.0695 126.535 28.0243C126.42 27.979 126.297 27.9594 126.173 27.9667C125.604 27.9667 125.213 28.2969 125.213 29.0286V31.8486H123.688V26.6862H125.213V27.1943C125.392 26.9803 125.62 26.8117 125.876 26.7022C126.133 26.5927 126.413 26.5454 126.691 26.5643C127.733 26.544 128.622 27.2858 128.622 28.678Z" fill="#FFD30D"/>
<path d="M134.979 24.6233V31.8486H133.429V31.3405C133.237 31.5516 133.001 31.7175 132.737 31.8265C132.474 31.9354 132.189 31.9846 131.904 31.9706C131.232 31.8993 130.609 31.5816 130.157 31.0788C129.705 30.5759 129.454 29.9235 129.454 29.2471C129.454 28.5707 129.705 27.9183 130.157 27.4154C130.609 26.9126 131.232 26.5949 131.904 26.5236C132.189 26.5106 132.473 26.5603 132.737 26.6692C133 26.7781 133.236 26.9435 133.429 27.1537V24.6132L134.979 24.6233ZM133.429 29.2674C133.423 29.0256 133.346 28.791 133.207 28.5928C133.068 28.3946 132.874 28.2418 132.649 28.1534C132.424 28.065 132.178 28.0449 131.941 28.0958C131.705 28.1466 131.488 28.266 131.32 28.4391C131.151 28.6123 131.036 28.8314 130.991 29.069C130.946 29.3067 130.972 29.5523 131.066 29.7752C131.16 29.9981 131.318 30.1884 131.519 30.3222C131.721 30.456 131.957 30.5275 132.199 30.5275C132.365 30.5343 132.531 30.5061 132.685 30.4447C132.839 30.3834 132.979 30.2903 133.095 30.1714C133.211 30.0526 133.3 29.9107 133.358 29.755C133.415 29.5992 133.44 29.4331 133.429 29.2674Z" fill="#FFD30D"/>
<path d="M140.065 30.2988C140.065 31.4878 139.049 31.9908 137.915 31.9908C137.465 32.0313 137.014 31.9364 136.618 31.7182C136.222 31.5 135.901 31.1685 135.695 30.7663L137.042 29.999C137.094 30.1862 137.21 30.3494 137.369 30.4606C137.529 30.5718 137.722 30.6242 137.915 30.6088C138.286 30.6088 138.474 30.497 138.474 30.2887C138.474 29.7247 135.934 30.0194 135.934 28.2562C135.934 27.1333 136.884 26.5642 137.966 26.5642C138.373 26.547 138.777 26.6405 139.135 26.8346C139.493 27.0288 139.791 27.3164 139.999 27.6668L138.678 28.3782C138.619 28.2436 138.523 28.1291 138.4 28.0487C138.277 27.9684 138.133 27.9257 137.987 27.926C137.717 27.926 137.555 28.0276 137.555 28.2156C137.524 28.7847 140.065 28.3883 140.065 30.2988Z" fill="#FFD30D"/>
<path d="M151.207 28.678V31.8486H149.683V28.8C149.683 28.2919 149.434 27.9514 148.936 27.9514C148.438 27.9514 148.133 28.3122 148.133 28.9219V31.8334H146.584V28.7847C146.584 28.2766 146.335 27.9362 145.842 27.9362C145.349 27.9362 145.034 28.2969 145.034 28.9067V31.8181H143.51V26.6862H145.034V27.1639C145.195 26.953 145.406 26.7858 145.649 26.6776C145.891 26.5693 146.157 26.5234 146.421 26.544C146.686 26.53 146.95 26.5854 147.187 26.7048C147.424 26.8242 147.626 27.0035 147.773 27.2248C147.944 26.9942 148.171 26.8108 148.432 26.6917C148.693 26.5727 148.98 26.5218 149.266 26.544C150.445 26.544 151.207 27.3874 151.207 28.678Z" fill="#FFD30D"/>
<path d="M154.891 30.6088C155.074 30.6144 155.257 30.5826 155.427 30.5153C155.597 30.448 155.752 30.3467 155.882 30.2175L157.122 30.9289C156.864 31.2785 156.523 31.5586 156.13 31.744C155.738 31.9293 155.305 32.0142 154.871 31.9908C154.513 31.9982 154.158 31.935 153.825 31.8049C153.491 31.6748 153.187 31.4804 152.929 31.2327C152.671 30.985 152.464 30.6888 152.32 30.3612C152.177 30.0336 152.099 29.6809 152.092 29.3233C152.084 28.9656 152.147 28.61 152.278 28.2768C152.408 27.9435 152.602 27.6392 152.85 27.3811C153.098 27.123 153.394 26.9163 153.721 26.7726C154.049 26.629 154.402 26.5513 154.759 26.5439C155.113 26.5415 155.463 26.611 155.789 26.7484C156.115 26.8857 156.41 27.0879 156.655 27.3427C156.9 27.5974 157.091 27.8995 157.216 28.2304C157.341 28.5612 157.397 28.9141 157.381 29.2674C157.38 29.4757 157.358 29.6834 157.315 29.8873H153.652C153.749 30.1277 153.924 30.3289 154.148 30.4594C154.373 30.59 154.634 30.6425 154.891 30.6088ZM155.841 28.7339C155.767 28.4975 155.62 28.2909 155.42 28.1443C155.22 27.9977 154.979 27.9186 154.731 27.9186C154.484 27.9186 154.242 27.9977 154.043 28.1443C153.843 28.2909 153.695 28.4975 153.621 28.7339H155.841Z" fill="#FFD30D"/>
<path d="M160.826 30.6087C161.009 30.6143 161.191 30.5825 161.362 30.5153C161.532 30.448 161.687 30.3467 161.817 30.2175L163.057 30.9288C162.799 31.2785 162.458 31.5586 162.065 31.7439C161.672 31.9293 161.239 32.0141 160.806 31.9908C159.037 31.9908 157.945 30.8069 157.945 29.2673C157.934 28.9048 157.997 28.5439 158.131 28.207C158.265 27.87 158.467 27.5643 158.725 27.3088C158.982 27.0533 159.289 26.8536 159.627 26.722C159.965 26.5904 160.326 26.5297 160.689 26.5439C161.043 26.5407 161.393 26.6098 161.72 26.7469C162.046 26.8839 162.341 27.0861 162.586 27.341C162.832 27.596 163.022 27.8983 163.147 28.2295C163.272 28.5607 163.327 28.9138 163.311 29.2673C163.312 29.4755 163.291 29.6832 163.25 29.8872H159.591C159.689 30.1267 159.863 30.3272 160.086 30.4577C160.309 30.5882 160.569 30.6413 160.826 30.6087ZM161.776 28.7338C161.702 28.4974 161.554 28.2909 161.355 28.1443C161.155 27.9976 160.914 27.9185 160.666 27.9185C160.418 27.9185 160.177 27.9976 159.977 28.1443C159.778 28.2909 159.63 28.4974 159.556 28.7338H161.776Z" fill="#FFD30D"/>
<path d="M165.993 28.175V29.9838C165.993 30.431 166.375 30.4919 167.055 30.431V31.8334C165.023 32.0417 164.444 31.4319 164.444 29.9838V28.1597H163.621V26.671H164.444V25.6903L165.993 25.228V26.671H167.055V28.1597L165.993 28.175Z" fill="#FFD30D"/>
<path d="M167.934 31.0001C167.934 30.8062 167.992 30.6166 168.1 30.4553C168.207 30.2941 168.36 30.1684 168.54 30.0942C168.719 30.0199 168.916 30.0005 169.106 30.0383C169.297 30.0762 169.471 30.1696 169.608 30.3067C169.746 30.4439 169.839 30.6186 169.877 30.8088C169.915 30.9991 169.895 31.1962 169.821 31.3754C169.747 31.5546 169.621 31.7078 169.46 31.8155C169.299 31.9233 169.109 31.9808 168.915 31.9808C168.655 31.9795 168.407 31.8757 168.223 31.6921C168.039 31.5085 167.936 31.2598 167.934 31.0001Z" fill="#FFD30D"/>
<path d="M19.9585 28.5205V29.1252C19.9585 29.6534 20.1683 30.16 20.5419 30.5336C20.9154 30.9071 21.422 31.1169 21.9503 31.1169H24.2571C24.7853 31.1169 25.2919 30.9071 25.6655 30.5336C26.039 30.16 26.2489 29.6534 26.2489 29.1252V27.9159C26.2489 27.9159 23.5457 28.0988 19.9585 28.5205Z" fill="#191701"/>
<path d="M34.6784 13.5109L26.4267 0.00546265H19.9585V21.5339C21.9554 21.3053 24.0538 21.1071 26.2489 20.9547V11.1838L31.1775 19.2475L34.6784 13.5109Z" fill="#282827"/>
<path d="M44.5914 0.00546265L35.5065 14.8828L32.0056 20.6194L32.0463 20.6803C33.1844 20.6549 34.3378 20.6346 35.5065 20.6346C36.6751 20.6346 37.8387 20.6346 38.9768 20.6854L44.7591 11.1838V29.3435C44.7591 29.8139 44.9459 30.2649 45.2785 30.5975C45.611 30.93 46.0621 31.1168 46.5324 31.1168H49.2762C49.7465 31.1168 50.1975 30.93 50.5301 30.5975C50.8626 30.2649 51.0495 29.8139 51.0495 29.3435V0.00546265H44.5914Z" fill="#282827"/>
<path d="M70.4846 26.6964L70.2814 26.7574C65.7983 28.2048 61.0367 28.5722 56.3847 27.8295H56.3491L56.1458 27.799L55.3532 27.6771L54.0067 27.4789L52.9905 27.3366L52.5739 27.2807V23.2159L54.3065 23.4445L54.9518 23.536C55.1652 23.5665 55.3735 23.602 55.5869 23.6274L56.8216 23.8205L57.8378 23.978L58.6 24.1102C59.6467 24.2829 60.6375 24.4607 61.5724 24.6437L62.8529 24.8977L63.3305 24.9943L63.803 25.0959L65.0987 25.3703C67.7459 25.9444 69.6158 26.4271 70.4846 26.6964Z" fill="#FFD30D"/>
<path d="M35.5115 22.1081C23.6948 22.1081 11.9282 23.6453 0.508057 26.6811L0.711296 26.742C5.20492 28.1894 9.97685 28.555 14.6385 27.8091C21.5421 26.7076 28.5207 26.1436 35.5115 26.1221C38.1893 26.1221 40.7857 26.2136 43.2805 26.366V22.3012C40.7908 22.1894 38.1893 22.1081 35.5115 22.1081Z" fill="#FFD30D"/>
<path d="M69.0365 23.5361C69.1221 23.6336 69.1748 23.7556 69.1874 23.8847C69.2 24.0138 69.1718 24.1436 69.1067 24.2558C69.0416 24.3681 68.9429 24.457 68.8246 24.5102C68.7063 24.5634 68.5743 24.5781 68.4471 24.5523C67.939 24.4202 65.6678 23.8511 62.5785 23.1754C59.1081 19.2934 53.9407 12.0427 52.5485 9.96457V1.22513C57.7108 11.5803 65.5408 20.0352 69.0365 23.5361Z" fill="#FFD30D"/>
<path d="M68.6401 23.1447L67.6798 24.3946C69.4887 24.8265 70.8301 25.2685 70.8301 25.2685L68.6401 23.1447Z" fill="#EDDB03"/>
<path d="M1.7936 23.5361C1.70807 23.6336 1.65528 23.7556 1.6427 23.8847C1.63011 24.0138 1.65835 24.1436 1.72344 24.2558C1.78853 24.3681 1.88718 24.457 2.00551 24.5102C2.12384 24.5634 2.25587 24.5781 2.383 24.5523C2.89111 24.4202 5.16235 23.8511 8.25164 23.1754C11.722 19.2934 16.8895 12.0427 18.2817 9.96457V1.22513C13.1193 11.5803 5.29446 20.0352 1.7936 23.5361Z" fill="#FFD30D"/>
<path d="M2.17977 23.1447L3.15026 24.3946C1.3414 24.8265 0 25.2685 0 25.2685L2.17977 23.1447Z" fill="#EDDB03"/>
</svg>
