<svg width="392" height="133" viewBox="0 0 392 133" fill="none" xmlns="http://www.w3.org/2000/svg">
<path d="M107.269 16.8002V56.146H95.6516V52.2734C94.1899 53.8822 92.39 55.1471 90.3812 55.9774C88.3724 56.8077 86.2047 57.1827 84.0337 57.0754C78.9072 56.5323 74.163 54.1112 70.7151 50.2787C67.2672 46.4462 65.3595 41.4733 65.3595 36.3181C65.3595 31.1629 67.2672 26.1901 70.7151 22.3576C74.163 18.5251 78.9072 16.1041 84.0337 15.5609C86.2037 15.4618 88.3689 15.8404 90.3765 16.6702C92.384 17.5 94.1849 18.7606 95.6516 20.3629V16.4903L107.269 16.8002ZM95.6516 36.4731C95.6059 34.6301 95.0176 32.8416 93.9604 31.3313C92.9032 29.821 91.4241 28.6559 89.7082 27.9821C87.9922 27.3083 86.1156 27.1556 84.3132 27.543C82.5108 27.9305 80.8627 28.8408 79.5751 30.1602C78.2876 31.4796 77.4179 33.1496 77.0747 34.9609C76.7316 36.7722 76.9302 38.6445 77.6458 40.3434C78.3614 42.0424 79.5623 43.4926 81.098 44.5125C82.6338 45.5323 84.4362 46.0766 86.2798 46.0772C87.5314 46.1067 88.7755 45.8754 89.9329 45.398C91.0903 44.9206 92.1357 44.2076 93.0026 43.3043C93.8695 42.401 94.5389 41.3271 94.9682 40.151C95.3976 38.975 95.5776 37.7224 95.4966 36.4731H95.6516Z" fill="#1F1F1F"/>
<path d="M140.304 56.1474L127.718 38.7593V56.1474H115.906V1.07874H127.718V34.1896L139.529 16.9564H153.277L138.987 36.6294L153.703 56.3022L140.304 56.1474Z" fill="#1F1F1F"/>
<path d="M175.623 46.6956C177.019 46.7384 178.408 46.496 179.707 45.9832C181.005 45.4705 182.185 44.6982 183.175 43.7137L192.624 49.1353C190.659 51.8001 188.062 53.9349 185.068 55.3477C182.073 56.7605 178.775 57.407 175.468 57.2292C172.742 57.2851 170.032 56.8035 167.492 55.812C164.953 54.8206 162.633 53.3387 160.666 51.4507C158.699 49.5628 157.123 47.3058 156.028 44.8089C154.933 42.3119 154.341 39.6238 154.285 36.8979C154.229 34.172 154.711 31.4618 155.702 28.922C156.694 26.3822 158.176 24.0625 160.064 22.0955C161.952 20.1285 164.208 18.5526 166.705 17.4578C169.202 16.3629 171.891 15.7706 174.616 15.7147C177.312 15.6962 179.983 16.2263 182.467 17.2729C184.95 18.3195 187.195 19.8607 189.065 21.8025C190.934 23.7444 192.389 26.0462 193.34 28.5682C194.292 31.0901 194.72 33.7792 194.599 36.4719C194.612 38.0608 194.443 39.646 194.096 41.1965H166.174C166.919 43.0288 168.251 44.5625 169.961 45.5575C171.671 46.5525 173.662 46.9528 175.623 46.6956ZM182.865 32.4057C182.3 30.604 181.174 29.0298 179.652 27.9122C178.13 26.7946 176.292 26.192 174.403 26.192C172.515 26.192 170.676 26.7946 169.154 27.9122C167.632 29.0298 166.507 30.604 165.942 32.4057H182.865Z" fill="#1F1F1F"/>
<path d="M240.915 46.6964C242.31 46.7392 243.7 46.4968 244.998 45.984C246.297 45.4713 247.477 44.699 248.467 43.7144L257.877 49.1361C255.918 51.7978 253.328 53.931 250.34 55.3438C247.353 56.7566 244.061 57.4048 240.76 57.23C227.283 57.23 218.957 48.2067 218.957 36.4727C218.87 33.71 219.353 30.959 220.375 28.391C221.397 25.8229 222.937 23.4926 224.898 21.5454C226.86 19.5983 229.202 18.0758 231.777 17.0728C234.353 16.0698 237.107 15.6078 239.869 15.7155C242.566 15.6914 245.24 16.2178 247.726 17.2625C250.213 18.3072 252.46 19.8481 254.331 21.7911C256.201 23.7341 257.655 26.0383 258.605 28.5627C259.554 31.0871 259.979 33.7786 259.852 36.4727C259.859 38.0593 259.703 39.6424 259.387 41.1973H231.466C232.206 43.0337 233.536 44.5714 235.247 45.5672C236.959 46.563 238.953 46.9604 240.915 46.6964ZM248.118 32.4065C247.564 30.5992 246.445 29.0174 244.926 27.8935C243.406 26.7697 241.566 26.1631 239.676 26.1631C237.786 26.1631 235.945 26.7697 234.426 27.8935C232.906 29.0174 231.787 30.5992 231.233 32.4065H248.118Z" fill="#1F1F1F"/>
<path d="M304.309 31.9818V56.147H292.497V33.7245C292.595 32.7863 292.486 31.8383 292.181 30.946C291.875 30.0538 291.379 29.2387 290.727 28.5572C290.075 27.8757 289.283 27.3441 288.405 26.9993C287.527 26.6545 286.585 26.5046 285.643 26.5601C281.306 26.5601 278.324 29.0773 278.324 34.6539V56.147H266.706V16.8012H278.324V20.6738C279.691 19.0424 281.425 17.7571 283.383 16.9227C285.341 16.0882 287.469 15.7281 289.593 15.8717C297.532 15.7167 304.309 21.3708 304.309 31.9818Z" fill="#1F1F1F"/>
<path d="M352.756 1.07753V56.1462H340.945V52.2736C339.483 53.8823 337.683 55.1473 335.674 55.9776C333.666 56.8079 331.498 57.1829 329.327 57.0756C324.2 56.5324 319.456 54.1114 316.008 50.2789C312.56 46.4464 310.653 41.4735 310.653 36.3183C310.653 31.1631 312.56 26.1903 316.008 22.3578C319.456 18.5253 324.2 16.1042 329.327 15.5611C331.497 15.4619 333.662 15.8406 335.67 16.6704C337.677 17.5001 339.478 18.7608 340.945 20.3631V1L352.756 1.07753ZM340.945 36.4732C340.899 34.6303 340.311 32.8417 339.253 31.3314C338.196 29.8211 336.717 28.6561 335.001 27.9822C333.285 27.3084 331.409 27.1558 329.606 27.5432C327.804 27.9306 326.156 28.8409 324.868 30.1604C323.581 31.4798 322.711 33.1498 322.368 34.9611C322.025 36.7724 322.223 38.6446 322.939 40.3436C323.655 42.0426 324.855 43.4928 326.391 44.5126C327.927 45.5325 329.729 46.0768 331.573 46.0774C332.837 46.1289 334.099 45.914 335.274 45.4464C336.45 44.9788 337.515 44.2691 338.399 43.3634C339.282 42.4577 339.966 41.3762 340.404 40.1891C340.843 39.0021 341.027 37.736 340.945 36.4732Z" fill="#1F1F1F"/>
<path d="M391.522 44.334C391.522 53.396 383.776 57.2299 375.14 57.2299C371.711 57.5387 368.267 56.815 365.251 55.1519C362.236 53.4889 359.786 50.9624 358.217 47.8969L368.479 42.0492C368.879 43.4759 369.762 44.7195 370.977 45.5672C372.192 46.4149 373.664 46.8141 375.14 46.6964C377.967 46.6964 379.4 45.8444 379.4 44.2566C379.4 39.958 360.037 42.2041 360.037 28.7662C360.037 20.2077 367.279 15.8703 375.528 15.8703C378.628 15.7389 381.707 16.4511 384.434 17.931C387.162 19.4109 389.438 21.603 391.018 24.2739L380.949 29.6955C380.503 28.6698 379.767 27.7969 378.831 27.1845C377.896 26.5721 376.801 26.2469 375.683 26.249C373.63 26.249 372.391 27.0234 372.391 28.4563C372.158 32.7936 391.522 29.773 391.522 44.334Z" fill="#1F1F1F"/>
<path d="M58.6702 107.721V131.886H47.0523V108.651C47.0523 104.778 45.1547 102.183 41.3596 102.183C37.5644 102.183 35.2409 104.933 35.2409 109.58V131.77H23.4293V108.534C23.4293 104.662 21.5318 102.067 17.7753 102.067C14.0189 102.067 11.6179 104.817 11.6179 109.464V131.654H0V92.5405H11.6179V96.1807C12.846 94.5737 14.4568 93.2995 16.3033 92.4743C18.1499 91.6491 20.1736 91.2991 22.19 91.4561C24.2103 91.3494 26.2234 91.7719 28.0302 92.682C29.8369 93.5922 31.3746 94.9584 32.4912 96.6454C33.7951 94.888 35.5236 93.49 37.5148 92.5824C39.5061 91.6748 41.6949 91.2874 43.8767 91.4561C52.8612 91.4561 58.6702 97.8846 58.6702 107.721Z" fill="#1F1F1F"/>
<path d="M86.7461 122.437C88.1415 122.48 89.5309 122.237 90.8293 121.724C92.1278 121.212 93.308 120.439 94.2978 119.455L103.747 124.876C101.782 127.541 99.1852 129.676 96.1907 131.089C93.1962 132.502 89.8975 133.148 86.5912 132.97C83.8653 133.026 81.1552 132.545 78.6154 131.553C76.0756 130.562 73.7559 129.08 71.7889 127.192C69.8218 125.304 68.2458 123.047 67.151 120.55C66.0562 118.053 65.4639 115.365 65.4079 112.639C65.352 109.913 65.8335 107.203 66.8249 104.663C67.8164 102.123 69.2984 99.8037 71.1864 97.8367C73.0743 95.8697 75.3313 94.2938 77.8283 93.199C80.3252 92.1041 83.0133 91.5118 85.7392 91.4559C88.4345 91.4374 91.1055 91.9675 93.5894 93.0141C96.0733 94.0607 98.3183 95.6019 100.188 97.5437C102.057 99.4855 103.512 101.787 104.463 104.309C105.415 106.831 105.843 109.52 105.722 112.213C105.716 113.801 105.547 115.384 105.218 116.938H77.2969C78.0423 118.77 79.374 120.304 81.0837 121.299C82.7934 122.294 84.7847 122.694 86.7461 122.437ZM93.9879 108.147C93.4227 106.345 92.2973 104.771 90.7753 103.653C89.2534 102.536 87.4144 101.933 85.5262 101.933C83.638 101.933 81.7991 102.536 80.2771 103.653C78.7552 104.771 77.6298 106.345 77.0646 108.147H93.9879Z" fill="#1F1F1F"/>
<path d="M131.978 122.438C133.373 122.48 134.763 122.238 136.061 121.725C137.36 121.213 138.54 120.44 139.53 119.456L148.979 124.877C147.014 127.542 144.417 129.677 141.422 131.09C138.428 132.502 135.129 133.149 131.823 132.971C118.346 132.971 110.02 123.948 110.02 112.214C109.933 109.451 110.416 106.7 111.438 104.132C112.46 101.564 114 99.2338 115.961 97.2866C117.923 95.3395 120.265 93.817 122.84 92.814C125.416 91.811 128.17 91.349 130.932 91.4567C133.629 91.4326 136.303 91.959 138.789 93.0037C141.276 94.0484 143.523 95.5893 145.393 97.5323C147.264 99.4753 148.718 101.779 149.668 104.304C150.617 106.828 151.042 109.52 150.915 112.214C150.922 113.8 150.766 115.384 150.45 116.938H122.567C123.311 118.764 124.637 120.292 126.339 121.287C128.04 122.281 130.023 122.686 131.978 122.438ZM139.22 108.148C138.654 106.346 137.529 104.772 136.007 103.654C134.485 102.537 132.646 101.934 130.758 101.934C128.87 101.934 127.031 102.537 125.509 103.654C123.987 104.772 122.861 106.346 122.296 108.148H139.22Z" fill="#1F1F1F"/>
<path d="M171.364 103.889V117.676C171.364 121.083 174.268 121.548 179.458 121.083V131.772C163.967 133.36 159.552 128.712 159.552 117.676V103.773H153.279V92.4261H159.552V84.9518L171.364 81.4278V92.4261H179.458V103.773L171.364 103.889Z" fill="#1F1F1F"/>
<path d="M186.156 125.419C186.156 123.941 186.595 122.496 187.416 121.267C188.237 120.038 189.405 119.08 190.77 118.514C192.136 117.948 193.639 117.8 195.089 118.089C196.538 118.377 197.87 119.089 198.916 120.134C199.961 121.179 200.673 122.511 200.961 123.961C201.249 125.411 201.101 126.914 200.536 128.279C199.97 129.645 199.012 130.812 197.783 131.634C196.554 132.455 195.109 132.893 193.631 132.893C191.651 132.883 189.756 132.092 188.357 130.693C186.957 129.293 186.167 127.398 186.156 125.419Z" fill="#1F1F1F"/>
<path d="M59 57H45.5192V23.8644L30.2884 48.049H28.7117L13.465 23.8644V57H0V0H13.465L29.4685 25.3282L45.4562 0H58.9369L59 57Z" fill="#1F1F1F"/>
</svg>
