<svg width="52" height="52" viewBox="0 0 52 52" fill="none" xmlns="http://www.w3.org/2000/svg">
<path d="M48.9129 23.9959C50.02 36.6502 40.6592 47.8059 28.005 48.913C15.3508 50.0201 4.19503 40.6593 3.08793 28.0051C1.98083 15.3509 11.3416 4.19515 23.9958 3.08805C36.65 1.98095 47.8058 11.3417 48.9129 23.9959Z" fill="#FFD30D" stroke="#1F1F1F" stroke-width="2"/>
<path d="M34.4152 22.2689C34.4589 22.7687 34.89 23.1304 35.3897 23.0867C35.8895 23.043 36.2512 22.6119 36.2075 22.1121C36.0461 20.2671 34.4094 18.8937 32.5643 19.0551C30.7193 19.2166 29.3459 20.8533 29.5073 22.6983C29.551 23.1981 29.9821 23.5598 30.4819 23.5161C30.9816 23.4724 31.3434 23.0413 31.2996 22.5415C31.2246 21.6835 31.8631 20.9225 32.7211 20.8475C33.5791 20.7724 34.3401 21.4109 34.4152 22.2689Z" fill="#1F1F1F" stroke="#1F1F1F" stroke-width="0.548781"/>
<path d="M19.0934 23.6093C19.1371 24.109 19.5682 24.4708 20.068 24.427C20.5677 24.3833 20.9294 23.9522 20.8857 23.4525C20.7243 21.6074 19.0876 20.234 17.2425 20.3955C15.3975 20.5569 14.0241 22.1936 14.1855 24.0386C14.2293 24.5384 14.6604 24.9001 15.1601 24.8564C15.6599 24.8127 16.0216 24.3816 15.9779 23.8818C15.9028 23.0238 16.5413 22.2629 17.3993 22.1878C18.2574 22.1127 19.0183 22.7513 19.0934 23.6093Z" fill="#1F1F1F" stroke="#1F1F1F" stroke-width="0.548781"/>
<path d="M17.2864 29.9405L17.2864 29.9405L17.2883 29.9439C19.0778 33.0988 22.5751 34.9392 26.2071 34.6214C29.8395 34.3036 32.9631 31.8839 34.2025 28.4657L34.2026 28.4657L34.2044 28.4604C34.3609 27.9994 34.1222 27.478 33.6494 27.3175C33.1892 27.1612 32.6685 27.399 32.5072 27.8704C31.5256 30.6309 28.9961 32.5839 26.0639 32.8404C23.1316 33.097 20.3014 31.6129 18.8554 29.0648C18.6147 28.6285 18.0606 28.4848 17.6345 28.7186C17.1967 28.9587 17.0523 29.5138 17.2864 29.9405Z" fill="#1F1F1F" stroke="#1F1F1F" stroke-width="0.548781"/>
</svg>
