<svg width="48" height="48" viewBox="0 0 48 48" fill="none" xmlns="http://www.w3.org/2000/svg">
<path d="M46.503 29.2373L46.5139 29.2449L46.525 29.2523C46.8844 29.4903 47.0858 29.9754 46.9653 30.4689L46.9598 30.4915L46.9553 30.5144C46.8683 30.9596 46.4869 31.3182 46.023 31.3894L46.0186 31.3901L34.8883 33.1498L33.9818 33.2931L34.0469 34.2084L34.8635 45.6903L34.8642 45.7011L34.8652 45.712C34.9102 46.1948 34.6432 46.6542 34.2115 46.8798C33.7556 47.0963 33.2681 47.0116 32.9419 46.6999L32.9395 46.6976L24.6884 38.8671L24 38.2138L23.3116 38.8671L15.0695 46.6891C14.8619 46.8746 14.5455 46.9949 14.2878 46.9949C14.134 46.9949 13.9811 46.9601 13.7743 46.8722C13.393 46.6636 13.1165 46.1832 13.1374 45.6776L13.9531 34.2084L14.0182 33.2931L13.1117 33.1498L1.98136 31.3901L1.97697 31.3894C1.54712 31.3234 1.16086 30.9854 1.03471 30.4689C0.920703 30.0021 1.09275 29.5322 1.50354 29.2327L10.7794 22.7265L11.5189 22.2079L11.0779 21.4196L5.4948 11.4398C5.24037 10.9668 5.28891 10.4387 5.57371 10.0799C5.89154 9.67946 6.37309 9.53117 6.81444 9.66534C6.81546 9.66565 6.81648 9.66596 6.8175 9.66628L17.554 13.0514L18.4495 13.3338L18.7876 12.4577L22.9087 1.77925C23.1161 1.28408 23.5469 1 24 1C24.4531 1 24.8839 1.28406 25.0913 1.77928L29.2124 12.4577L29.5505 13.3338L30.446 13.0514L41.1825 9.66628C41.1835 9.66596 41.1845 9.66565 41.1856 9.66534C41.6269 9.53117 42.1085 9.67946 42.4263 10.0799C42.7111 10.4387 42.7596 10.9668 42.5052 11.4398L36.9221 21.4196L36.4811 22.2079L37.2206 22.7265L46.503 29.2373Z" fill="#FFD30D" stroke="#383A48" stroke-width="2"/>
</svg>
